<svg width="50" height="50" viewBox="0 0 50 50" fill="none" xmlns="http://www.w3.org/2000/svg">
<mask id="path-1-outside-1_26_64" maskUnits="userSpaceOnUse" x="2" y="2" width="46" height="46" fill="black">
<rect fill="white" x="2" y="2" width="46" height="46"/>
<path d="M25.0046 40.4033C24.9408 40.5659 24.9005 40.6727 24.8577 40.7785C23.7084 43.6226 21.7755 45.6283 18.9278 46.6173C17.6503 47.06 16.3401 47.1552 15.0294 46.708C14.381 46.4867 13.8817 46.0721 13.635 45.4241C13.4146 44.8462 13.287 44.2309 13.1271 43.6293C13.0923 43.4987 13.0939 43.358 13.0735 43.1865C12.8885 43.2219 12.726 43.2707 12.5614 43.2812C12.002 43.3166 11.4351 43.3979 10.8822 43.3531C9.90987 43.2751 9.28133 42.6408 8.84424 41.7913C7.88426 39.9184 7.86765 37.9643 8.43773 35.9852C9.00782 34.0061 10.0901 32.3396 11.6089 30.9854C11.6625 30.9394 11.7381 30.9251 11.8036 30.8957L11.7317 30.7851C11.6384 30.7739 11.5456 30.7602 11.4523 30.7512C8.63991 30.4823 6.28287 29.2991 4.50771 27.0018C3.62013 25.8572 3.08276 24.5439 3.00499 23.0525C2.946 21.8957 3.41044 21.0351 4.35432 20.4446C4.75655 20.1927 5.18345 19.9814 5.59909 19.7517C5.39422 19.3156 5.17004 18.8867 4.9877 18.4406C4.58119 17.4561 4.6568 16.5279 5.30144 15.6546C6.13861 14.5189 7.24446 13.7851 8.53266 13.3396C11.3659 12.36 14.0431 12.7535 16.568 14.3701C16.6351 14.4127 16.7048 14.4514 16.8303 14.5256C16.7944 14.3452 16.7718 14.2173 16.744 14.0906C16.1541 11.3837 16.3932 8.78865 17.7801 6.37345C18.5701 4.99815 19.617 3.88298 21.0789 3.24597C22.1086 2.79658 23.0391 2.96925 23.8704 3.71252C24.2672 4.06727 24.6297 4.46298 25.0421 4.87474C25.3533 4.54599 25.6471 4.16744 26.0075 3.87468C26.3543 3.58676 26.7403 3.3531 27.1531 3.18122C28.0213 2.832 28.8311 3.12587 29.5771 3.5891C31.7132 4.90905 32.8802 6.91803 33.3795 9.38692C33.7013 10.967 33.6204 12.5387 33.2803 14.1044C33.2589 14.2029 33.2394 14.302 33.2218 14.4016C33.2218 14.4177 33.2304 14.4359 33.247 14.499C33.3495 14.4343 33.4417 14.3739 33.535 14.3164C36.2166 12.6732 39.0203 12.3008 41.963 13.4558C43.0157 13.8637 43.9389 14.5637 44.6306 15.4786C45.3063 16.3641 45.4586 17.3177 45.0312 18.3564C44.8397 18.8208 44.6177 19.2724 44.4038 19.7401C44.7694 19.9343 45.1545 20.1242 45.524 20.3389C46.5431 20.9277 47.1007 21.8027 46.9849 23.0347C46.9401 23.5756 46.8372 24.1096 46.6782 24.627C45.9418 26.9131 44.4053 28.4838 42.3878 29.6034C41.2191 30.2502 39.9323 30.638 38.61 30.7419C38.5259 30.7491 38.4421 30.7646 38.2915 30.7857C38.476 30.9516 38.6186 31.0734 38.7516 31.2035C40.9231 33.3326 42.1228 35.8922 41.9625 39.033C41.904 40.1747 41.5785 41.2428 40.9403 42.1948C40.4522 42.9225 39.7926 43.3658 38.9265 43.3752C38.3671 43.3807 37.8072 43.2944 37.2479 43.248C37.169 43.2413 37.0912 43.2242 36.9797 43.207C36.9223 43.5518 36.8724 43.8844 36.8108 44.2143C36.7763 44.4136 36.7295 44.6105 36.6708 44.8037C36.2353 46.1812 35.3488 46.8735 33.882 46.9748C31.9514 47.1076 30.2351 46.5021 28.6756 45.3627C27.0737 44.1905 25.9153 42.6508 25.1752 40.7762C25.1301 40.6689 25.0781 40.5654 25.0046 40.4033ZM26.0278 24.1555C26.1083 24.0447 26.1888 23.9368 26.2676 23.8262C27.8229 21.6063 29.3497 19.3671 30.9335 17.1727C31.9524 15.7647 32.5719 14.2223 32.7252 12.4801C32.9027 10.4634 32.596 8.54126 31.5738 6.78521C30.8766 5.59089 29.96 4.63566 28.7029 4.0562C28.0004 3.73244 27.3386 3.80384 26.7674 4.29529C26.2644 4.72808 25.8161 5.23614 25.3731 5.737C25.0641 6.08842 24.9494 6.09286 24.6421 5.74253C24.1883 5.22506 23.7346 4.69985 23.2236 4.24825C22.6589 3.75015 21.997 3.72137 21.3122 4.03406C20.5785 4.3689 19.9596 4.86423 19.425 5.46471C18.0955 6.96397 17.4154 8.74825 17.2798 10.7661C17.1237 13.0905 17.6648 15.1936 19.0232 17.082C20.3382 18.9082 21.6055 20.775 22.8948 22.6229C23.2584 23.1442 23.6263 23.6628 23.9904 24.1797C24.1261 24.1277 24.2313 24.0641 24.3428 24.0486C24.5991 24.0138 24.6598 23.8771 24.6592 23.6191C24.6555 21.8675 24.6721 20.1153 24.671 18.3615C24.6636 18.2315 24.6108 18.1086 24.5225 18.0155C24.1975 17.6835 24.1573 17.2021 24.4512 16.8761C24.5204 16.7972 24.6047 16.734 24.6987 16.6903C24.7926 16.6464 24.8944 16.6231 24.9974 16.6218C25.1005 16.6204 25.2029 16.6409 25.2979 16.682C25.393 16.7233 25.4788 16.7842 25.55 16.861C25.8573 17.1855 25.8332 17.6608 25.5168 17.9989C25.4246 18.1012 25.3694 18.2331 25.3602 18.3726C25.349 18.9349 25.3666 19.4971 25.3698 20.06C25.3763 21.2675 25.3773 22.4757 25.3897 23.6834C25.3897 23.7824 25.4379 23.9274 25.5088 23.9694C25.6637 24.0586 25.8461 24.0935 26.0278 24.1555ZM11.3858 13.6263C11.1176 13.65 10.7036 13.6633 10.2987 13.7275C8.73216 13.9771 7.32705 14.5704 6.21368 15.7891C5.55403 16.5113 5.31324 17.31 5.75032 18.2376C5.97611 18.7173 6.233 19.1812 6.49525 19.6421C6.70977 20.0196 6.65238 20.1784 6.26893 20.3666C5.71386 20.6389 5.15503 20.9111 4.63159 21.2404C4.10817 21.5697 3.81588 22.0706 3.80194 22.7347C3.7841 23.3446 3.88118 23.9523 4.08779 24.524C4.933 26.8313 6.54673 28.3532 8.72144 29.2697C10.1694 29.8785 11.6786 30.1785 13.2323 29.8287C14.0491 29.6444 14.8411 29.3433 15.6371 29.0644C17.9544 28.2514 20.2638 27.4146 22.5843 26.6111C22.9103 26.5003 22.8315 26.2834 22.8626 26.0576C22.8953 25.8219 22.7345 25.8052 22.5945 25.7565C20.9724 25.1828 19.3505 24.6093 17.7291 24.0359C17.5608 23.9761 17.4272 23.97 17.2578 24.0724C16.8893 24.2938 16.3873 24.1117 16.205 23.7227C16.0227 23.3335 16.1894 22.8416 16.5643 22.6666C16.9568 22.4835 17.4401 22.6628 17.5897 23.0779C17.6556 23.2605 17.7634 23.3314 17.9249 23.3867C19.5524 23.9449 21.1792 24.5062 22.8052 25.0703C22.9442 25.1178 23.0815 25.1992 23.1952 24.9939C23.2997 24.8047 23.4354 24.6867 23.2488 24.4266C21.7563 22.3312 20.29 20.2166 18.8071 18.1141C18.3138 17.414 17.8595 16.6679 17.2776 16.0537C15.71 14.4011 13.7503 13.6667 11.3858 13.6263ZM26.6339 24.6558C27.0324 25.2551 26.8511 25.1898 27.4588 24.9817C29.0102 24.4516 30.5585 23.913 32.1095 23.3817C32.2587 23.3303 32.3686 23.2788 32.4313 23.1006C32.5923 22.6523 33.0802 22.474 33.4953 22.6828C33.5851 22.7294 33.6649 22.7943 33.73 22.8735C33.7951 22.9526 33.8441 23.0443 33.8742 23.1434C33.9041 23.2425 33.9146 23.3468 33.9047 23.4501C33.895 23.5534 33.8651 23.6536 33.8171 23.7448C33.608 24.1438 33.1199 24.2722 32.7247 24.0547C32.613 23.9962 32.4842 23.9824 32.3632 24.0159C30.713 24.5887 29.0671 25.1754 27.4185 25.7548C27.2683 25.8101 27.1295 25.8401 27.16 26.0604C27.189 26.2713 27.0967 26.4843 27.418 26.5955C30.2545 27.5779 33.0781 28.6001 35.9183 29.5708C36.5279 29.7812 37.1637 29.8992 37.8061 29.9212C40.2329 29.9859 42.3111 29.0694 44.061 27.3593C45.1519 26.2934 45.8769 25.0072 46.1451 23.4569C46.3296 22.3905 46.0582 21.5565 45.1111 21.0257C44.673 20.7805 44.2192 20.5603 43.7623 20.3544C43.3435 20.1657 43.3086 20.0472 43.5236 19.6239C43.8213 19.0384 44.1087 18.4456 44.3614 17.8379C44.5844 17.3011 44.4896 16.7748 44.1913 16.281C43.5891 15.2849 42.7016 14.6529 41.6777 14.2101C40.3793 13.6484 39.0192 13.4907 37.6292 13.6694C35.3285 13.9633 33.4079 14.9639 32.0227 16.9468C30.5865 19.0046 29.1482 21.06 27.7081 23.1133C27.3477 23.628 26.9901 24.1444 26.6339 24.6558ZM26.5803 27.7223C26.6108 27.7727 26.6339 27.8131 26.6575 27.8496C27.71 29.3506 28.7649 30.8502 29.8217 32.3486C29.8753 32.4238 29.99 32.4559 30.0807 32.4979C30.2545 32.5793 30.4631 32.6159 30.6009 32.7387C30.8653 32.9734 30.8836 33.4172 30.6878 33.7282C30.5055 34.0188 30.1214 34.1372 29.7831 34.0049C29.4447 33.8726 29.272 33.5296 29.3143 33.1338C29.3293 32.9938 29.3261 32.8123 29.2527 32.7082C28.2246 31.2456 27.1772 29.7983 26.1501 28.3361C25.9388 28.0344 25.7619 28.2962 25.5693 28.3101C25.3768 28.3239 25.3918 28.4722 25.3918 28.6156C25.3918 31.5842 25.379 34.5534 25.4047 37.5221C25.4095 38.1948 25.492 38.8645 25.6504 39.5172C26.2402 41.9219 27.6346 43.7416 29.6495 45.0466C30.9184 45.8679 32.3149 46.3234 33.8295 46.1606C35.1702 46.0168 35.6529 45.5674 35.9694 44.3626C36.1055 43.8434 36.1371 43.2928 36.1903 42.7532C36.2315 42.3342 36.3662 42.2169 36.7658 42.317C37.024 42.3911 37.2856 42.4517 37.5498 42.4985C37.9118 42.5513 38.2763 42.5847 38.6416 42.5982C39.6681 42.6325 40.242 42.0022 40.6324 41.1188C41.2497 39.723 41.3297 38.272 41.0191 36.7909C40.5943 34.7698 39.6145 33.0829 38.1011 31.7259C37.1835 30.9018 36.0889 30.4452 34.9572 30.0507C32.4585 29.181 29.9645 28.304 27.4753 27.4195C26.9375 27.2298 26.9401 27.2226 26.5803 27.7223ZM24.6168 33.4394H24.6458C24.6458 31.8344 24.6351 30.2294 24.6544 28.6245C24.6588 28.2625 24.3933 28.3244 24.2254 28.2205C24.0446 28.1097 23.9663 28.2403 23.8816 28.3604C22.9034 29.7349 21.9249 31.1092 20.9459 32.4836C20.785 32.7088 20.6697 32.9103 20.7228 33.2279C20.7979 33.6745 20.4648 34.0293 20.0256 34.0675C19.6255 34.1018 19.2571 33.7714 19.2211 33.348C19.1836 32.8964 19.4743 32.5278 19.9184 32.5057C20.0937 32.4969 20.1892 32.4254 20.2852 32.2876C21.2902 30.8427 22.2909 29.3937 23.3185 27.9648C23.5388 27.6582 23.2831 27.5469 23.1936 27.356C23.1002 27.1573 22.9666 27.279 22.8519 27.3194C20.2159 28.2503 17.5769 29.1718 14.9485 30.126C14.2448 30.3815 13.5154 30.6467 12.9019 31.0668C10.5341 32.695 9.18748 35.0023 8.89841 37.9294C8.77399 39.1935 8.98583 40.4065 9.62135 41.5267C9.98388 42.166 10.4875 42.5843 11.2099 42.5717C11.8404 42.5556 12.4684 42.4836 13.0869 42.3563C13.7428 42.2268 13.8206 42.2495 13.849 42.9424C13.8673 43.5883 13.9929 44.226 14.2201 44.828C14.4604 45.45 14.8857 45.8325 15.5073 46.0102C16.4308 46.2752 17.3495 46.205 18.2612 45.9675C20.1666 45.4694 21.664 44.3382 22.8519 42.7576C23.9181 41.3358 24.5681 39.7336 24.6136 37.921C24.6464 36.4279 24.6168 34.9336 24.6168 33.4394ZM23.5651 26.1617C23.5625 26.9863 24.2087 27.6714 24.9993 27.6764C25.7898 27.6813 26.4629 26.9896 26.4671 26.1876C26.4709 25.3365 25.8236 24.638 25.0325 24.6413C24.2415 24.6447 23.5679 25.3353 23.5651 26.16V26.1617Z"/>
</mask>
<path d="M25.0046 40.4033C24.9408 40.5659 24.9005 40.6727 24.8577 40.7785C23.7084 43.6226 21.7755 45.6283 18.9278 46.6173C17.6503 47.06 16.3401 47.1552 15.0294 46.708C14.381 46.4867 13.8817 46.0721 13.635 45.4241C13.4146 44.8462 13.287 44.2309 13.1271 43.6293C13.0923 43.4987 13.0939 43.358 13.0735 43.1865C12.8885 43.2219 12.726 43.2707 12.5614 43.2812C12.002 43.3166 11.4351 43.3979 10.8822 43.3531C9.90987 43.2751 9.28133 42.6408 8.84424 41.7913C7.88426 39.9184 7.86765 37.9643 8.43773 35.9852C9.00782 34.0061 10.0901 32.3396 11.6089 30.9854C11.6625 30.9394 11.7381 30.9251 11.8036 30.8957L11.7317 30.7851C11.6384 30.7739 11.5456 30.7602 11.4523 30.7512C8.63991 30.4823 6.28287 29.2991 4.50771 27.0018C3.62013 25.8572 3.08276 24.5439 3.00499 23.0525C2.946 21.8957 3.41044 21.0351 4.35432 20.4446C4.75655 20.1927 5.18345 19.9814 5.59909 19.7517C5.39422 19.3156 5.17004 18.8867 4.9877 18.4406C4.58119 17.4561 4.6568 16.5279 5.30144 15.6546C6.13861 14.5189 7.24446 13.7851 8.53266 13.3396C11.3659 12.36 14.0431 12.7535 16.568 14.3701C16.6351 14.4127 16.7048 14.4514 16.8303 14.5256C16.7944 14.3452 16.7718 14.2173 16.744 14.0906C16.1541 11.3837 16.3932 8.78865 17.7801 6.37345C18.5701 4.99815 19.617 3.88298 21.0789 3.24597C22.1086 2.79658 23.0391 2.96925 23.8704 3.71252C24.2672 4.06727 24.6297 4.46298 25.0421 4.87474C25.3533 4.54599 25.6471 4.16744 26.0075 3.87468C26.3543 3.58676 26.7403 3.3531 27.1531 3.18122C28.0213 2.832 28.8311 3.12587 29.5771 3.5891C31.7132 4.90905 32.8802 6.91803 33.3795 9.38692C33.7013 10.967 33.6204 12.5387 33.2803 14.1044C33.2589 14.2029 33.2394 14.302 33.2218 14.4016C33.2218 14.4177 33.2304 14.4359 33.247 14.499C33.3495 14.4343 33.4417 14.3739 33.535 14.3164C36.2166 12.6732 39.0203 12.3008 41.963 13.4558C43.0157 13.8637 43.9389 14.5637 44.6306 15.4786C45.3063 16.3641 45.4586 17.3177 45.0312 18.3564C44.8397 18.8208 44.6177 19.2724 44.4038 19.7401C44.7694 19.9343 45.1545 20.1242 45.524 20.3389C46.5431 20.9277 47.1007 21.8027 46.9849 23.0347C46.9401 23.5756 46.8372 24.1096 46.6782 24.627C45.9418 26.9131 44.4053 28.4838 42.3878 29.6034C41.2191 30.2502 39.9323 30.638 38.61 30.7419C38.5259 30.7491 38.4421 30.7646 38.2915 30.7857C38.476 30.9516 38.6186 31.0734 38.7516 31.2035C40.9231 33.3326 42.1228 35.8922 41.9625 39.033C41.904 40.1747 41.5785 41.2428 40.9403 42.1948C40.4522 42.9225 39.7926 43.3658 38.9265 43.3752C38.3671 43.3807 37.8072 43.2944 37.2479 43.248C37.169 43.2413 37.0912 43.2242 36.9797 43.207C36.9223 43.5518 36.8724 43.8844 36.8108 44.2143C36.7763 44.4136 36.7295 44.6105 36.6708 44.8037C36.2353 46.1812 35.3488 46.8735 33.882 46.9748C31.9514 47.1076 30.2351 46.5021 28.6756 45.3627C27.0737 44.1905 25.9153 42.6508 25.1752 40.7762C25.1301 40.6689 25.0781 40.5654 25.0046 40.4033ZM26.0278 24.1555C26.1083 24.0447 26.1888 23.9368 26.2676 23.8262C27.8229 21.6063 29.3497 19.3671 30.9335 17.1727C31.9524 15.7647 32.5719 14.2223 32.7252 12.4801C32.9027 10.4634 32.596 8.54126 31.5738 6.78521C30.8766 5.59089 29.96 4.63566 28.7029 4.0562C28.0004 3.73244 27.3386 3.80384 26.7674 4.29529C26.2644 4.72808 25.8161 5.23614 25.3731 5.737C25.0641 6.08842 24.9494 6.09286 24.6421 5.74253C24.1883 5.22506 23.7346 4.69985 23.2236 4.24825C22.6589 3.75015 21.997 3.72137 21.3122 4.03406C20.5785 4.3689 19.9596 4.86423 19.425 5.46471C18.0955 6.96397 17.4154 8.74825 17.2798 10.7661C17.1237 13.0905 17.6648 15.1936 19.0232 17.082C20.3382 18.9082 21.6055 20.775 22.8948 22.6229C23.2584 23.1442 23.6263 23.6628 23.9904 24.1797C24.1261 24.1277 24.2313 24.0641 24.3428 24.0486C24.5991 24.0138 24.6598 23.8771 24.6592 23.6191C24.6555 21.8675 24.6721 20.1153 24.671 18.3615C24.6636 18.2315 24.6108 18.1086 24.5225 18.0155C24.1975 17.6835 24.1573 17.2021 24.4512 16.8761C24.5204 16.7972 24.6047 16.734 24.6987 16.6903C24.7926 16.6464 24.8944 16.6231 24.9974 16.6218C25.1005 16.6204 25.2029 16.6409 25.2979 16.682C25.393 16.7233 25.4788 16.7842 25.55 16.861C25.8573 17.1855 25.8332 17.6608 25.5168 17.9989C25.4246 18.1012 25.3694 18.2331 25.3602 18.3726C25.349 18.9349 25.3666 19.4971 25.3698 20.06C25.3763 21.2675 25.3773 22.4757 25.3897 23.6834C25.3897 23.7824 25.4379 23.9274 25.5088 23.9694C25.6637 24.0586 25.8461 24.0935 26.0278 24.1555ZM11.3858 13.6263C11.1176 13.65 10.7036 13.6633 10.2987 13.7275C8.73216 13.9771 7.32705 14.5704 6.21368 15.7891C5.55403 16.5113 5.31324 17.31 5.75032 18.2376C5.97611 18.7173 6.233 19.1812 6.49525 19.6421C6.70977 20.0196 6.65238 20.1784 6.26893 20.3666C5.71386 20.6389 5.15503 20.9111 4.63159 21.2404C4.10817 21.5697 3.81588 22.0706 3.80194 22.7347C3.7841 23.3446 3.88118 23.9523 4.08779 24.524C4.933 26.8313 6.54673 28.3532 8.72144 29.2697C10.1694 29.8785 11.6786 30.1785 13.2323 29.8287C14.0491 29.6444 14.8411 29.3433 15.6371 29.0644C17.9544 28.2514 20.2638 27.4146 22.5843 26.6111C22.9103 26.5003 22.8315 26.2834 22.8626 26.0576C22.8953 25.8219 22.7345 25.8052 22.5945 25.7565C20.9724 25.1828 19.3505 24.6093 17.7291 24.0359C17.5608 23.9761 17.4272 23.97 17.2578 24.0724C16.8893 24.2938 16.3873 24.1117 16.205 23.7227C16.0227 23.3335 16.1894 22.8416 16.5643 22.6666C16.9568 22.4835 17.4401 22.6628 17.5897 23.0779C17.6556 23.2605 17.7634 23.3314 17.9249 23.3867C19.5524 23.9449 21.1792 24.5062 22.8052 25.0703C22.9442 25.1178 23.0815 25.1992 23.1952 24.9939C23.2997 24.8047 23.4354 24.6867 23.2488 24.4266C21.7563 22.3312 20.29 20.2166 18.8071 18.1141C18.3138 17.414 17.8595 16.6679 17.2776 16.0537C15.71 14.4011 13.7503 13.6667 11.3858 13.6263ZM26.6339 24.6558C27.0324 25.2551 26.8511 25.1898 27.4588 24.9817C29.0102 24.4516 30.5585 23.913 32.1095 23.3817C32.2587 23.3303 32.3686 23.2788 32.4313 23.1006C32.5923 22.6523 33.0802 22.474 33.4953 22.6828C33.5851 22.7294 33.6649 22.7943 33.73 22.8735C33.7951 22.9526 33.8441 23.0443 33.8742 23.1434C33.9041 23.2425 33.9146 23.3468 33.9047 23.4501C33.895 23.5534 33.8651 23.6536 33.8171 23.7448C33.608 24.1438 33.1199 24.2722 32.7247 24.0547C32.613 23.9962 32.4842 23.9824 32.3632 24.0159C30.713 24.5887 29.0671 25.1754 27.4185 25.7548C27.2683 25.8101 27.1295 25.8401 27.16 26.0604C27.189 26.2713 27.0967 26.4843 27.418 26.5955C30.2545 27.5779 33.0781 28.6001 35.9183 29.5708C36.5279 29.7812 37.1637 29.8992 37.8061 29.9212C40.2329 29.9859 42.3111 29.0694 44.061 27.3593C45.1519 26.2934 45.8769 25.0072 46.1451 23.4569C46.3296 22.3905 46.0582 21.5565 45.1111 21.0257C44.673 20.7805 44.2192 20.5603 43.7623 20.3544C43.3435 20.1657 43.3086 20.0472 43.5236 19.6239C43.8213 19.0384 44.1087 18.4456 44.3614 17.8379C44.5844 17.3011 44.4896 16.7748 44.1913 16.281C43.5891 15.2849 42.7016 14.6529 41.6777 14.2101C40.3793 13.6484 39.0192 13.4907 37.6292 13.6694C35.3285 13.9633 33.4079 14.9639 32.0227 16.9468C30.5865 19.0046 29.1482 21.06 27.7081 23.1133C27.3477 23.628 26.9901 24.1444 26.6339 24.6558ZM26.5803 27.7223C26.6108 27.7727 26.6339 27.8131 26.6575 27.8496C27.71 29.3506 28.7649 30.8502 29.8217 32.3486C29.8753 32.4238 29.99 32.4559 30.0807 32.4979C30.2545 32.5793 30.4631 32.6159 30.6009 32.7387C30.8653 32.9734 30.8836 33.4172 30.6878 33.7282C30.5055 34.0188 30.1214 34.1372 29.7831 34.0049C29.4447 33.8726 29.272 33.5296 29.3143 33.1338C29.3293 32.9938 29.3261 32.8123 29.2527 32.7082C28.2246 31.2456 27.1772 29.7983 26.1501 28.3361C25.9388 28.0344 25.7619 28.2962 25.5693 28.3101C25.3768 28.3239 25.3918 28.4722 25.3918 28.6156C25.3918 31.5842 25.379 34.5534 25.4047 37.5221C25.4095 38.1948 25.492 38.8645 25.6504 39.5172C26.2402 41.9219 27.6346 43.7416 29.6495 45.0466C30.9184 45.8679 32.3149 46.3234 33.8295 46.1606C35.1702 46.0168 35.6529 45.5674 35.9694 44.3626C36.1055 43.8434 36.1371 43.2928 36.1903 42.7532C36.2315 42.3342 36.3662 42.2169 36.7658 42.317C37.024 42.3911 37.2856 42.4517 37.5498 42.4985C37.9118 42.5513 38.2763 42.5847 38.6416 42.5982C39.6681 42.6325 40.242 42.0022 40.6324 41.1188C41.2497 39.723 41.3297 38.272 41.0191 36.7909C40.5943 34.7698 39.6145 33.0829 38.1011 31.7259C37.1835 30.9018 36.0889 30.4452 34.9572 30.0507C32.4585 29.181 29.9645 28.304 27.4753 27.4195C26.9375 27.2298 26.9401 27.2226 26.5803 27.7223ZM24.6168 33.4394H24.6458C24.6458 31.8344 24.6351 30.2294 24.6544 28.6245C24.6588 28.2625 24.3933 28.3244 24.2254 28.2205C24.0446 28.1097 23.9663 28.2403 23.8816 28.3604C22.9034 29.7349 21.9249 31.1092 20.9459 32.4836C20.785 32.7088 20.6697 32.9103 20.7228 33.2279C20.7979 33.6745 20.4648 34.0293 20.0256 34.0675C19.6255 34.1018 19.2571 33.7714 19.2211 33.348C19.1836 32.8964 19.4743 32.5278 19.9184 32.5057C20.0937 32.4969 20.1892 32.4254 20.2852 32.2876C21.2902 30.8427 22.2909 29.3937 23.3185 27.9648C23.5388 27.6582 23.2831 27.5469 23.1936 27.356C23.1002 27.1573 22.9666 27.279 22.8519 27.3194C20.2159 28.2503 17.5769 29.1718 14.9485 30.126C14.2448 30.3815 13.5154 30.6467 12.9019 31.0668C10.5341 32.695 9.18748 35.0023 8.89841 37.9294C8.77399 39.1935 8.98583 40.4065 9.62135 41.5267C9.98388 42.166 10.4875 42.5843 11.2099 42.5717C11.8404 42.5556 12.4684 42.4836 13.0869 42.3563C13.7428 42.2268 13.8206 42.2495 13.849 42.9424C13.8673 43.5883 13.9929 44.226 14.2201 44.828C14.4604 45.45 14.8857 45.8325 15.5073 46.0102C16.4308 46.2752 17.3495 46.205 18.2612 45.9675C20.1666 45.4694 21.664 44.3382 22.8519 42.7576C23.9181 41.3358 24.5681 39.7336 24.6136 37.921C24.6464 36.4279 24.6168 34.9336 24.6168 33.4394ZM23.5651 26.1617C23.5625 26.9863 24.2087 27.6714 24.9993 27.6764C25.7898 27.6813 26.4629 26.9896 26.4671 26.1876C26.4709 25.3365 25.8236 24.638 25.0325 24.6413C24.2415 24.6447 23.5679 25.3353 23.5651 26.16V26.1617Z" fill="#EA6433"/>
<path d="M25.0046 40.4033C24.9408 40.5659 24.9005 40.6727 24.8577 40.7785C23.7084 43.6226 21.7755 45.6283 18.9278 46.6173C17.6503 47.06 16.3401 47.1552 15.0294 46.708C14.381 46.4867 13.8817 46.0721 13.635 45.4241C13.4146 44.8462 13.287 44.2309 13.1271 43.6293C13.0923 43.4987 13.0939 43.358 13.0735 43.1865C12.8885 43.2219 12.726 43.2707 12.5614 43.2812C12.002 43.3166 11.4351 43.3979 10.8822 43.3531C9.90987 43.2751 9.28133 42.6408 8.84424 41.7913C7.88426 39.9184 7.86765 37.9643 8.43773 35.9852C9.00782 34.0061 10.0901 32.3396 11.6089 30.9854C11.6625 30.9394 11.7381 30.9251 11.8036 30.8957L11.7317 30.7851C11.6384 30.7739 11.5456 30.7602 11.4523 30.7512C8.63991 30.4823 6.28287 29.2991 4.50771 27.0018C3.62013 25.8572 3.08276 24.5439 3.00499 23.0525C2.946 21.8957 3.41044 21.0351 4.35432 20.4446C4.75655 20.1927 5.18345 19.9814 5.59909 19.7517C5.39422 19.3156 5.17004 18.8867 4.9877 18.4406C4.58119 17.4561 4.6568 16.5279 5.30144 15.6546C6.13861 14.5189 7.24446 13.7851 8.53266 13.3396C11.3659 12.36 14.0431 12.7535 16.568 14.3701C16.6351 14.4127 16.7048 14.4514 16.8303 14.5256C16.7944 14.3452 16.7718 14.2173 16.744 14.0906C16.1541 11.3837 16.3932 8.78865 17.7801 6.37345C18.5701 4.99815 19.617 3.88298 21.0789 3.24597C22.1086 2.79658 23.0391 2.96925 23.8704 3.71252C24.2672 4.06727 24.6297 4.46298 25.0421 4.87474C25.3533 4.54599 25.6471 4.16744 26.0075 3.87468C26.3543 3.58676 26.7403 3.3531 27.1531 3.18122C28.0213 2.832 28.8311 3.12587 29.5771 3.5891C31.7132 4.90905 32.8802 6.91803 33.3795 9.38692C33.7013 10.967 33.6204 12.5387 33.2803 14.1044C33.2589 14.2029 33.2394 14.302 33.2218 14.4016C33.2218 14.4177 33.2304 14.4359 33.247 14.499C33.3495 14.4343 33.4417 14.3739 33.535 14.3164C36.2166 12.6732 39.0203 12.3008 41.963 13.4558C43.0157 13.8637 43.9389 14.5637 44.6306 15.4786C45.3063 16.3641 45.4586 17.3177 45.0312 18.3564C44.8397 18.8208 44.6177 19.2724 44.4038 19.7401C44.7694 19.9343 45.1545 20.1242 45.524 20.3389C46.5431 20.9277 47.1007 21.8027 46.9849 23.0347C46.9401 23.5756 46.8372 24.1096 46.6782 24.627C45.9418 26.9131 44.4053 28.4838 42.3878 29.6034C41.2191 30.2502 39.9323 30.638 38.61 30.7419C38.5259 30.7491 38.4421 30.7646 38.2915 30.7857C38.476 30.9516 38.6186 31.0734 38.7516 31.2035C40.9231 33.3326 42.1228 35.8922 41.9625 39.033C41.904 40.1747 41.5785 41.2428 40.9403 42.1948C40.4522 42.9225 39.7926 43.3658 38.9265 43.3752C38.3671 43.3807 37.8072 43.2944 37.2479 43.248C37.169 43.2413 37.0912 43.2242 36.9797 43.207C36.9223 43.5518 36.8724 43.8844 36.8108 44.2143C36.7763 44.4136 36.7295 44.6105 36.6708 44.8037C36.2353 46.1812 35.3488 46.8735 33.882 46.9748C31.9514 47.1076 30.2351 46.5021 28.6756 45.3627C27.0737 44.1905 25.9153 42.6508 25.1752 40.7762C25.1301 40.6689 25.0781 40.5654 25.0046 40.4033ZM26.0278 24.1555C26.1083 24.0447 26.1888 23.9368 26.2676 23.8262C27.8229 21.6063 29.3497 19.3671 30.9335 17.1727C31.9524 15.7647 32.5719 14.2223 32.7252 12.4801C32.9027 10.4634 32.596 8.54126 31.5738 6.78521C30.8766 5.59089 29.96 4.63566 28.7029 4.0562C28.0004 3.73244 27.3386 3.80384 26.7674 4.29529C26.2644 4.72808 25.8161 5.23614 25.3731 5.737C25.0641 6.08842 24.9494 6.09286 24.6421 5.74253C24.1883 5.22506 23.7346 4.69985 23.2236 4.24825C22.6589 3.75015 21.997 3.72137 21.3122 4.03406C20.5785 4.3689 19.9596 4.86423 19.425 5.46471C18.0955 6.96397 17.4154 8.74825 17.2798 10.7661C17.1237 13.0905 17.6648 15.1936 19.0232 17.082C20.3382 18.9082 21.6055 20.775 22.8948 22.6229C23.2584 23.1442 23.6263 23.6628 23.9904 24.1797C24.1261 24.1277 24.2313 24.0641 24.3428 24.0486C24.5991 24.0138 24.6598 23.8771 24.6592 23.6191C24.6555 21.8675 24.6721 20.1153 24.671 18.3615C24.6636 18.2315 24.6108 18.1086 24.5225 18.0155C24.1975 17.6835 24.1573 17.2021 24.4512 16.8761C24.5204 16.7972 24.6047 16.734 24.6987 16.6903C24.7926 16.6464 24.8944 16.6231 24.9974 16.6218C25.1005 16.6204 25.2029 16.6409 25.2979 16.682C25.393 16.7233 25.4788 16.7842 25.55 16.861C25.8573 17.1855 25.8332 17.6608 25.5168 17.9989C25.4246 18.1012 25.3694 18.2331 25.3602 18.3726C25.349 18.9349 25.3666 19.4971 25.3698 20.06C25.3763 21.2675 25.3773 22.4757 25.3897 23.6834C25.3897 23.7824 25.4379 23.9274 25.5088 23.9694C25.6637 24.0586 25.8461 24.0935 26.0278 24.1555ZM11.3858 13.6263C11.1176 13.65 10.7036 13.6633 10.2987 13.7275C8.73216 13.9771 7.32705 14.5704 6.21368 15.7891C5.55403 16.5113 5.31324 17.31 5.75032 18.2376C5.97611 18.7173 6.233 19.1812 6.49525 19.6421C6.70977 20.0196 6.65238 20.1784 6.26893 20.3666C5.71386 20.6389 5.15503 20.9111 4.63159 21.2404C4.10817 21.5697 3.81588 22.0706 3.80194 22.7347C3.7841 23.3446 3.88118 23.9523 4.08779 24.524C4.933 26.8313 6.54673 28.3532 8.72144 29.2697C10.1694 29.8785 11.6786 30.1785 13.2323 29.8287C14.0491 29.6444 14.8411 29.3433 15.6371 29.0644C17.9544 28.2514 20.2638 27.4146 22.5843 26.6111C22.9103 26.5003 22.8315 26.2834 22.8626 26.0576C22.8953 25.8219 22.7345 25.8052 22.5945 25.7565C20.9724 25.1828 19.3505 24.6093 17.7291 24.0359C17.5608 23.9761 17.4272 23.97 17.2578 24.0724C16.8893 24.2938 16.3873 24.1117 16.205 23.7227C16.0227 23.3335 16.1894 22.8416 16.5643 22.6666C16.9568 22.4835 17.4401 22.6628 17.5897 23.0779C17.6556 23.2605 17.7634 23.3314 17.9249 23.3867C19.5524 23.9449 21.1792 24.5062 22.8052 25.0703C22.9442 25.1178 23.0815 25.1992 23.1952 24.9939C23.2997 24.8047 23.4354 24.6867 23.2488 24.4266C21.7563 22.3312 20.29 20.2166 18.8071 18.1141C18.3138 17.414 17.8595 16.6679 17.2776 16.0537C15.71 14.4011 13.7503 13.6667 11.3858 13.6263ZM26.6339 24.6558C27.0324 25.2551 26.8511 25.1898 27.4588 24.9817C29.0102 24.4516 30.5585 23.913 32.1095 23.3817C32.2587 23.3303 32.3686 23.2788 32.4313 23.1006C32.5923 22.6523 33.0802 22.474 33.4953 22.6828C33.5851 22.7294 33.6649 22.7943 33.73 22.8735C33.7951 22.9526 33.8441 23.0443 33.8742 23.1434C33.9041 23.2425 33.9146 23.3468 33.9047 23.4501C33.895 23.5534 33.8651 23.6536 33.8171 23.7448C33.608 24.1438 33.1199 24.2722 32.7247 24.0547C32.613 23.9962 32.4842 23.9824 32.3632 24.0159C30.713 24.5887 29.0671 25.1754 27.4185 25.7548C27.2683 25.8101 27.1295 25.8401 27.16 26.0604C27.189 26.2713 27.0967 26.4843 27.418 26.5955C30.2545 27.5779 33.0781 28.6001 35.9183 29.5708C36.5279 29.7812 37.1637 29.8992 37.8061 29.9212C40.2329 29.9859 42.3111 29.0694 44.061 27.3593C45.1519 26.2934 45.8769 25.0072 46.1451 23.4569C46.3296 22.3905 46.0582 21.5565 45.1111 21.0257C44.673 20.7805 44.2192 20.5603 43.7623 20.3544C43.3435 20.1657 43.3086 20.0472 43.5236 19.6239C43.8213 19.0384 44.1087 18.4456 44.3614 17.8379C44.5844 17.3011 44.4896 16.7748 44.1913 16.281C43.5891 15.2849 42.7016 14.6529 41.6777 14.2101C40.3793 13.6484 39.0192 13.4907 37.6292 13.6694C35.3285 13.9633 33.4079 14.9639 32.0227 16.9468C30.5865 19.0046 29.1482 21.06 27.7081 23.1133C27.3477 23.628 26.9901 24.1444 26.6339 24.6558ZM26.5803 27.7223C26.6108 27.7727 26.6339 27.8131 26.6575 27.8496C27.71 29.3506 28.7649 30.8502 29.8217 32.3486C29.8753 32.4238 29.99 32.4559 30.0807 32.4979C30.2545 32.5793 30.4631 32.6159 30.6009 32.7387C30.8653 32.9734 30.8836 33.4172 30.6878 33.7282C30.5055 34.0188 30.1214 34.1372 29.7831 34.0049C29.4447 33.8726 29.272 33.5296 29.3143 33.1338C29.3293 32.9938 29.3261 32.8123 29.2527 32.7082C28.2246 31.2456 27.1772 29.7983 26.1501 28.3361C25.9388 28.0344 25.7619 28.2962 25.5693 28.3101C25.3768 28.3239 25.3918 28.4722 25.3918 28.6156C25.3918 31.5842 25.379 34.5534 25.4047 37.5221C25.4095 38.1948 25.492 38.8645 25.6504 39.5172C26.2402 41.9219 27.6346 43.7416 29.6495 45.0466C30.9184 45.8679 32.3149 46.3234 33.8295 46.1606C35.1702 46.0168 35.6529 45.5674 35.9694 44.3626C36.1055 43.8434 36.1371 43.2928 36.1903 42.7532C36.2315 42.3342 36.3662 42.2169 36.7658 42.317C37.024 42.3911 37.2856 42.4517 37.5498 42.4985C37.9118 42.5513 38.2763 42.5847 38.6416 42.5982C39.6681 42.6325 40.242 42.0022 40.6324 41.1188C41.2497 39.723 41.3297 38.272 41.0191 36.7909C40.5943 34.7698 39.6145 33.0829 38.1011 31.7259C37.1835 30.9018 36.0889 30.4452 34.9572 30.0507C32.4585 29.181 29.9645 28.304 27.4753 27.4195C26.9375 27.2298 26.9401 27.2226 26.5803 27.7223ZM24.6168 33.4394H24.6458C24.6458 31.8344 24.6351 30.2294 24.6544 28.6245C24.6588 28.2625 24.3933 28.3244 24.2254 28.2205C24.0446 28.1097 23.9663 28.2403 23.8816 28.3604C22.9034 29.7349 21.9249 31.1092 20.9459 32.4836C20.785 32.7088 20.6697 32.9103 20.7228 33.2279C20.7979 33.6745 20.4648 34.0293 20.0256 34.0675C19.6255 34.1018 19.2571 33.7714 19.2211 33.348C19.1836 32.8964 19.4743 32.5278 19.9184 32.5057C20.0937 32.4969 20.1892 32.4254 20.2852 32.2876C21.2902 30.8427 22.2909 29.3937 23.3185 27.9648C23.5388 27.6582 23.2831 27.5469 23.1936 27.356C23.1002 27.1573 22.9666 27.279 22.8519 27.3194C20.2159 28.2503 17.5769 29.1718 14.9485 30.126C14.2448 30.3815 13.5154 30.6467 12.9019 31.0668C10.5341 32.695 9.18748 35.0023 8.89841 37.9294C8.77399 39.1935 8.98583 40.4065 9.62135 41.5267C9.98388 42.166 10.4875 42.5843 11.2099 42.5717C11.8404 42.5556 12.4684 42.4836 13.0869 42.3563C13.7428 42.2268 13.8206 42.2495 13.849 42.9424C13.8673 43.5883 13.9929 44.226 14.2201 44.828C14.4604 45.45 14.8857 45.8325 15.5073 46.0102C16.4308 46.2752 17.3495 46.205 18.2612 45.9675C20.1666 45.4694 21.664 44.3382 22.8519 42.7576C23.9181 41.3358 24.5681 39.7336 24.6136 37.921C24.6464 36.4279 24.6168 34.9336 24.6168 33.4394ZM23.5651 26.1617C23.5625 26.9863 24.2087 27.6714 24.9993 27.6764C25.7898 27.6813 26.4629 26.9896 26.4671 26.1876C26.4709 25.3365 25.8236 24.638 25.0325 24.6413C24.2415 24.6447 23.5679 25.3353 23.5651 26.16V26.1617Z" stroke="#EA6433" stroke-width="0.6" mask="url(#path-1-outside-1_26_64)"/>
</svg>
