<svg width="974" height="264" viewBox="0 0 974 264" fill="none" xmlns="http://www.w3.org/2000/svg">
<path d="M140.702 0.448363C139.855 1.23012 140.246 4.4223 141.875 11.1975C142.787 14.9109 143.699 20.9044 143.96 24.4875L144.35 31.0672L142.135 32.9565C134.904 39.0803 129.823 46.3767 127.934 53.4125C126.956 56.9304 126.044 58.7546 124.676 59.9923C121.875 62.5331 115.425 64.4223 106.956 65.1389C96.7935 66.051 96.077 66.2464 94.9043 68.5265C93.2757 71.7187 93.862 80.1226 96.077 84.8132C97.0542 86.8979 98.5525 89.2432 99.3994 90.0249C100.246 90.8718 102.005 93.4777 103.308 95.8881C107.673 103.771 114.644 108.266 127.217 111.198C140.963 114.455 142.657 115.106 146.109 118.429C150.344 122.598 151.321 125.725 149.758 130.742C148.976 133.217 147.738 135.237 145.718 137.191C144.155 138.82 142.852 140.253 142.852 140.383C142.852 140.579 144.025 140.709 145.458 140.709C147.738 140.709 148.259 140.383 150.018 137.973C152.559 134.52 153.471 130.937 153.145 125.986C152.689 118.429 148.65 114.585 138.292 111.719C121.614 107.093 114.188 103.966 109.302 99.5363C105.719 96.279 105.588 94.976 109.041 96.9956C115.816 100.904 126.891 101.36 133.927 98.0379C136.989 96.6047 137.705 96.0184 137.51 94.9109C137.249 93.2171 135.034 92.5005 135.034 94.1291C135.034 94.7806 133.797 95.7578 131.973 96.6047C129.497 97.7122 127.673 98.0379 122.982 98.0379C115.556 97.9728 109.953 95.8881 104.676 91.0673C101.158 87.8099 101.158 87.8099 101.158 83.9663C101.158 80.3832 101.289 80.1226 103.178 79.1454C105.197 78.1031 108.976 72.8262 108.976 71.0672C108.976 70.5461 108.52 69.5689 107.868 68.9174C106.891 67.8099 106.956 67.7448 109.106 67.7448C112.233 67.7448 118.552 66.5721 121.81 65.3344C126.891 63.4451 131.777 56.8002 131.777 51.7187C131.777 51.0021 132.689 48.5917 133.732 46.3767C137.966 37.9728 148.911 30.2855 161.028 27.2887C165.849 26.051 167.803 25.9207 176.989 26.2464C190.93 26.7024 192.754 27.2887 188.129 30.0249C185.458 31.6536 185.197 32.5656 187.477 32.5656C191.126 32.5656 195.556 26.7676 199.464 16.8002C200.311 14.7806 201.94 11.9142 203.243 10.4809C207.282 5.72523 210.279 6.83273 218.683 16.0184C224.22 22.0119 228.52 24.748 232.559 24.748C234.122 24.748 235.165 25.2692 236.468 26.7024C238.162 28.5917 239.92 29.3083 239.92 28.0054C239.92 26.963 241.614 27.2888 243.438 28.722C244.741 29.7643 245.132 30.6112 245.132 32.5005C245.132 36.1487 243.96 39.0803 242.461 39.0803C241.745 39.0803 241.223 39.5363 241.223 40.1226C241.223 40.709 240.311 43.1194 239.204 45.4646C236.793 50.4158 232.233 55.3669 229.953 55.3669C227.087 55.3669 224.546 51.2627 222.07 42.7285C221.419 40.6438 219.53 35.5624 217.771 31.4581C215.946 27.3539 213.666 21.0998 212.559 17.6471C210.539 11.0673 209.236 9.11286 206.826 9.11286C205.067 9.11286 204.937 10.2203 206.631 10.7415C207.803 11.0672 210.604 16.9304 210.604 18.8848C210.604 20.0575 213.406 27.6796 214.969 30.8067C215.816 32.5005 217.901 37.9728 219.66 42.8588C223.503 53.8034 224.416 55.6927 226.761 57.1259C227.738 57.7122 228.65 58.2985 228.78 58.4288C228.911 58.494 228.259 59.7969 227.282 61.2301C225.458 64.0314 225.262 64.8783 226.175 65.4647C226.565 65.6601 228.064 64.0314 229.562 61.8816C231.126 59.7317 232.754 57.9728 233.21 57.9728C233.666 57.9728 234.057 58.1031 234.057 58.1682C234.057 58.2985 234.644 60.709 235.36 63.5103C238.552 75.9533 240.507 93.4777 240.572 109.439C240.637 121.1 241.158 124.878 243.308 127.875C244.546 129.569 244.546 129.829 243.634 130.351C242.852 130.807 242.787 131.393 243.178 132.761C243.504 133.738 244.546 137.647 245.523 141.491C246.565 145.725 249.236 153.087 252.429 160.383C264.025 186.833 266.24 194.325 266.305 206.181C266.305 213.087 266.109 214.39 264.741 217.256C263.894 219.015 262.917 222.403 262.657 224.748C262.396 227.093 261.94 230.285 261.68 231.914L261.289 234.846L262.657 233.543C263.634 232.566 264.22 230.872 264.611 227.68C265.328 222.533 268.911 212.175 269.497 213.673C271.582 219.145 277.64 238.038 277.38 238.299C277.054 238.624 259.465 237.386 259.074 236.93C258.943 236.8 259.269 235.628 259.79 234.325C260.963 231.458 261.093 227.81 259.986 228.136C259.595 228.266 258.878 229.504 258.422 230.807C257.38 233.738 254.448 238.103 251.712 240.644C249.758 242.468 249.692 242.533 249.692 241.165C249.692 239.471 247.282 239.145 246.631 240.709C245.458 243.836 235.816 245.986 225.588 245.4C207.673 244.357 191.712 237.647 168.585 221.491C159.008 214.781 155.816 213.282 147.347 211.328C136.468 208.917 132.95 207.549 129.367 204.292C127.152 202.338 127.477 200.97 130.474 199.732C131.907 199.145 133.862 198.689 134.709 198.689C135.751 198.689 136.337 198.299 136.337 197.712C136.337 196.409 132.494 196.409 129.302 197.712C127.087 198.689 126.826 198.689 126.109 197.647C123.829 194.585 126.24 191.719 131.712 190.937C133.732 190.676 134.709 190.22 134.709 189.569C134.709 188.136 132.754 188.005 129.171 189.178C125.002 190.546 124.611 190.481 124.611 188.722C124.611 186.377 126.305 184.553 129.562 183.445C131.191 182.924 133.275 181.686 134.122 180.774C135.36 179.406 136.207 179.145 139.139 179.145C143.569 179.145 148.064 181.36 156.533 187.614C168.78 196.735 173.08 198.559 194.904 203.966C203.634 206.116 213.992 208.917 217.901 210.155C221.875 211.458 225.197 212.305 225.393 212.11C225.588 211.914 225.588 211.393 225.393 210.872C225.002 209.895 222.201 208.722 213.732 206.116C207.021 204.097 207.152 204.683 211.451 195.106C214.513 188.396 217.575 183.38 221.158 179.08C223.829 175.823 224.22 174.585 222.657 174.585C220.572 174.585 211.191 189.178 207.999 197.386C207.217 199.341 206.175 201.621 205.718 202.338L204.806 203.771L195.165 201.556C175.881 197.191 169.367 194.325 156.533 184.748C149.171 179.211 145.523 177.321 141.093 176.735C138.552 176.409 138.292 176.214 138.683 174.976C139.53 172.435 144.937 165.139 145.979 165.139C146.891 165.139 147.087 164.553 146.891 161.882C146.5 153.934 146.826 150.872 148.455 147.614C150.344 143.836 150.148 142.663 147.673 143.185C146.435 143.38 146.044 143.25 146.37 142.728C147.021 141.751 146.435 141.816 144.09 143.054C141.745 144.227 141.875 145.53 144.35 145.79C145.328 145.921 146.109 146.116 146.109 146.181C146.109 146.312 145.653 147.68 145.132 149.178C144.611 150.676 144.155 154.064 144.155 156.67C144.155 161.1 144.025 161.556 141.484 165.334C140.051 167.484 137.315 170.937 135.49 172.957L132.103 176.54L128.259 174.585C125.263 173.087 123.569 172.631 120.637 172.631H116.793V170.025C116.793 166.768 114.904 164.748 110.409 163.185C106.891 162.012 96.2073 160.253 92.2333 160.253C90.6698 160.253 89.432 159.927 89.432 159.536C89.432 159.145 90.7349 156.996 92.3636 154.715C96.0118 149.569 97.3147 146.051 97.3147 140.97C97.3147 133.413 94.9695 130.416 84.6112 124.943C69.1714 116.67 66.8261 111.263 71.647 94.9761C75.3603 82.4679 74.8392 75.5624 70.0183 71.9793C67.4776 70.1552 60.8978 70.1552 58.4222 72.0444C55.686 74.064 54.3179 76.279 53.7316 79.3409C53.3407 81.8816 53.015 82.2725 50.8 83.0542C45.914 84.748 44.0899 88.0705 44.611 94.1943C44.8716 97.1259 45.3276 98.1682 47.0215 99.9272C49.1061 102.077 49.1062 102.142 48.129 104.097C46.6306 107.028 46.7609 112.37 48.4547 115.106C50.2136 117.908 53.9922 119.862 57.8359 119.862C60.3766 119.862 60.7675 120.057 60.7675 121.165C60.7675 121.947 62.3962 124.162 64.546 126.312C67.673 129.504 69.3669 130.546 75.0346 132.957C83.634 136.605 86.8261 139.341 86.8261 143.185C86.8261 146.833 86.1095 148.331 82.6568 152.435C81.0281 154.325 79.5297 156.865 79.2691 157.973L78.8783 160.057L71.3213 160.839C62.4613 161.816 56.3375 163.51 54.4482 165.595C52.6893 167.549 52.2984 172.566 53.015 185.66C53.5362 195.367 55.7512 209.895 57.7707 216.474C58.2919 218.233 58.4222 219.667 58.0965 219.927C57.7707 220.123 51.9074 219.797 45.1322 219.276C38.2918 218.689 27.0996 217.563 20.2462 217.256C11.4841 216.864 11.2561 216.748 9.30166 216.422C7.21697 216.031 5.78374 217.074 6.82609 218.116C7.15182 218.442 11.3212 218.754 18.0964 219.275C24.9368 219.861 11.3212 218.82 19.7251 219.471C28.129 220.188 39.5947 221.1 45.1322 221.491C57.1192 222.403 59.7251 222.859 59.9857 224.162C60.116 224.878 58.8782 225.334 54.8391 225.921C44.3505 227.614 35.0345 231.263 32.168 234.911C28.0638 240.123 32.8195 245.465 44.8065 249.373C55.6208 252.957 80.0509 255.888 91.8424 255.171C97.1193 254.781 98.1616 254.911 100.051 256.018C103.569 258.103 110.083 259.471 115.035 259.08C117.445 258.95 119.595 259.015 119.725 259.276C119.92 259.601 122.201 260.644 124.806 261.686C129.106 263.38 130.214 263.51 137.966 263.51C145.653 263.51 146.891 263.315 151.517 261.621C154.839 260.448 157.575 258.885 159.53 257.061C162.07 254.781 162.591 253.934 162.852 251.328C163.047 249.504 162.852 247.419 162.396 246.181C160.572 241.882 152.95 237.973 144.155 236.8C141.875 236.474 139.269 235.562 136.989 234.129C135.034 232.891 131.842 231.393 129.953 230.742C125.328 229.113 124.937 228.461 128.846 228.917C130.67 229.113 134.188 229.439 136.663 229.634C139.204 229.829 150.148 230.742 161.093 231.654C180.442 233.217 181.028 233.347 183.894 235.171C189.236 238.494 198.487 242.859 204.09 244.618C216.663 248.527 233.015 249.243 241.81 246.246C244.741 245.269 246.175 245.074 246.631 245.53C247.868 246.768 248.846 246.377 253.276 242.989C258.357 239.145 257.119 239.211 277.38 241.035C294.969 242.598 297.25 242.663 297.25 241.426C297.25 240.383 295.295 239.992 286.631 239.406C282.266 239.08 280.833 238.689 280.377 237.908C279.595 236.344 274.839 222.468 272.429 214.65C271.256 210.807 270.214 205.53 269.888 201.882C269.106 193.413 266.565 186.051 256.663 163.836C250.93 151.002 248.259 143.836 247.087 138.559C246.305 135.106 246.305 134.781 247.478 133.869C248.715 132.891 248.715 132.891 247.478 131.914C246.761 131.393 246.565 130.937 246.956 130.937C247.868 130.937 247.999 128.592 247.152 128.005C246.826 127.81 245.914 125.986 245.132 123.901C243.894 120.774 243.569 118.103 243.113 106.181C242.266 85.8555 241.028 75.8881 237.575 62.077L235.881 55.3669L238.813 52.1096C240.376 50.3506 242.136 47.9402 242.657 46.7676C248.78 33.4777 249.171 32.0445 247.478 28.722C246.435 26.7676 244.481 25.7904 235.686 22.7936C227.933 20.1226 223.829 17.5819 218.292 11.7839C212.754 6.11612 210.409 4.55261 207.217 4.55261C203.373 4.55261 201.028 7.15845 196.337 16.6047C192.494 24.5526 192.233 24.8132 190.539 24.4875C189.562 24.2269 186.5 23.7708 183.764 23.4451C176.142 22.533 170.865 19.4712 156.989 8.26595C153.21 5.20406 148.911 2.07703 147.477 1.29527C144.937 -0.00766149 141.549 -0.398543 140.702 0.448363ZM153.08 8.52653C156.012 10.8067 159.986 13.9337 161.875 15.4321C163.764 16.9304 167.021 19.1454 169.041 20.3832L172.819 22.6633L170.8 23.0542C169.692 23.2497 167.933 23.4451 167.021 23.4451C166.044 23.4451 162.591 24.1617 159.269 25.0086L153.275 26.5721L152.95 24.1617C151.973 18.1682 150.344 13.4125 147.347 8.52653C145.588 5.59494 144.155 3.05423 144.155 2.85879C144.155 2.20733 148.064 4.68289 153.08 8.52653ZM149.302 18.1031C151.06 23.3148 151.126 27.7448 149.432 28.6568C147.152 29.8295 146.761 29.4386 146.761 25.8555C146.761 22.9239 146.305 19.862 144.481 9.76432C144.025 7.54933 144.09 7.61449 146.044 10.8067C147.087 12.6308 148.585 15.9532 149.302 18.1031ZM68.7805 74.2594C72.6242 77.3213 72.6893 83.1194 68.9108 95.3669C65.9141 104.943 65.9141 109.699 68.976 115.302C71.2561 119.536 74.4483 122.142 82.331 126.442C90.4092 130.807 92.2985 132.305 93.9271 135.693C96.4027 140.839 95.2301 146.116 89.7577 154.39C87.217 158.233 86.1747 160.383 86.1747 161.947C86.1747 164.422 86.5656 164.618 88.1291 163.185C89.1063 162.338 90.1486 162.272 95.5558 162.859C102.526 163.641 111.256 165.66 112.624 166.833C114.188 168.136 113.601 169.243 110.67 170.351C108.194 171.328 107.022 171.328 102.005 170.742C90.9955 169.439 83.3082 169.243 74.1226 170.09C61.7447 171.263 58.4873 171.198 56.8587 169.699C56.1421 169.048 55.5557 168.266 55.5557 168.005C55.5557 166.051 67.9336 162.859 75.4255 162.859C78.3571 162.859 79.0085 163.119 79.9206 164.487C81.5493 166.963 82.1356 165.986 81.8099 161.36L81.4841 157.256L84.8066 153.673C88.5199 149.569 89.432 147.614 89.432 143.836C89.432 138.168 86.1095 134.781 76.4027 130.676C74.0574 129.699 70.9304 128.136 69.3669 127.224C66.305 125.465 62.7219 120.579 62.7219 118.103C62.7219 116.605 62.5916 116.605 58.6176 116.996C54.8391 117.386 54.3831 117.256 52.4287 115.628C47.8684 111.784 48.3896 105.595 53.6013 102.924C56.4026 101.491 56.5329 100.318 53.7968 100.318C51.5818 100.318 48.6501 98.494 47.8032 96.6047C47.4123 95.7578 47.0866 93.7383 47.0866 92.1096C47.0866 89.6992 47.4775 88.7871 48.9759 87.2236C51.0605 85.2041 54.5785 84.6177 56.0769 86.1161C56.6632 86.7024 57.0541 86.7024 57.5753 86.1813C58.0965 85.6601 57.9662 84.9435 57.2495 83.5102C56.0118 81.0998 55.9466 79.0151 57.1193 76.9956C59.2039 73.1519 65.4581 71.6536 68.7805 74.2594ZM103.439 75.5624C102.787 76.279 101.875 76.8653 101.354 76.8653C100.833 76.8653 101.224 76.2138 102.266 75.3018C104.416 73.4777 105.197 73.6731 103.439 75.5624ZM98.5525 78.8848C98.5525 79.2757 98.2919 79.3409 97.9011 79.1454C97.5753 78.95 97.2496 78.4288 97.2496 78.1031C97.2496 77.7122 97.5753 77.6471 97.9011 77.8425C98.2919 78.0379 98.5525 78.5591 98.5525 78.8848ZM58.6176 172.761C59.9206 173.803 66.6307 175.106 74.5786 175.953C87.0867 177.256 107.347 175.302 112.038 172.24C113.862 171.067 114.188 171.067 114.188 172.24C114.188 174.259 116.142 175.237 120.116 175.237C124.09 175.237 127.934 176.409 128.846 177.842C129.627 179.145 126.565 181.165 125.067 180.318C122.982 179.211 118.096 179.536 116.207 180.97C114.904 181.947 114.448 182.859 114.318 185.074C114.253 186.637 113.666 191.914 113.08 196.735C112.494 201.556 111.973 207.158 111.973 209.113C111.908 212.566 111.973 212.696 113.666 212.891C116.077 213.152 119.074 211.654 123.048 208.136C125.523 205.986 126.565 205.465 127.152 206.051C129.497 208.396 125.588 212.631 117.445 216.54C114.318 218.103 111.126 219.471 110.409 219.667C109.497 219.927 108.781 221.035 108.129 223.315C107.608 225.074 106.696 227.419 106.11 228.592C104.025 232.566 97.445 234.52 85.9141 234.52C73.7317 234.52 67.217 232.696 64.6111 228.461C62.0053 224.227 58.4222 210.22 56.5981 197.061C55.6209 189.895 54.774 172.37 55.3603 171.719C55.7512 171.393 57.5101 171.914 58.6176 172.761ZM123.829 182.728C123.96 182.859 123.569 183.901 122.982 185.009C121.549 187.81 122.201 196.54 124.09 199.797C125.393 201.947 125.393 202.012 124.22 203.445C121.158 207.028 114.839 211.263 113.862 210.351C113.341 209.829 116.272 192.5 117.184 190.676C117.836 189.373 117.901 188.461 117.445 187.614C116.207 185.269 116.663 183.706 118.943 182.728C120.702 181.947 122.982 181.947 123.829 182.728ZM137.38 212.044C139.269 212.631 140.963 213.478 141.158 214.129C141.419 214.715 141.81 217.973 142.005 221.295L142.396 227.354H140.181C138.943 227.354 134.774 227.093 130.8 226.702C126.891 226.377 120.767 225.921 117.249 225.725C111.256 225.269 110.865 225.204 111.061 223.966C111.191 223.185 111.712 222.403 112.233 222.142C112.754 221.882 115.491 220.579 118.227 219.211C120.963 217.908 124.937 215.367 127.021 213.673C131.126 210.22 130.995 210.22 137.38 212.044ZM152.754 215.693C155.034 216.409 158.422 217.908 160.311 218.95C164.025 221.035 176.337 229.895 175.947 230.285C175.751 230.481 157.249 229.113 149.236 228.331L144.806 227.875V225.725C144.806 224.618 144.611 221.36 144.35 218.559L143.96 213.478L146.305 213.934C147.608 214.194 150.474 214.976 152.754 215.693ZM62.7219 230.155C64.9369 234.911 74.8392 237.517 88.4548 236.93C93.0802 236.67 97.7708 236.279 98.8783 236.084L100.768 235.628L98.2268 238.624L95.6209 241.621L88.1291 241.686C75.23 241.686 64.4157 239.927 57.3798 236.67C53.7968 235.041 52.2984 234.911 53.2756 236.474C54.0574 237.712 60.1812 240.448 65.1975 241.751C68.8457 242.728 73.4059 243.185 82.2007 243.51L94.1226 243.966L94.318 246.898C94.4483 248.527 94.6437 250.416 94.774 251.132C94.9695 252.37 94.6437 252.435 83.5688 252.24C65.002 251.914 49.1061 249.113 39.3993 244.553C33.9921 241.947 32.168 239.862 33.2755 237.452C34.0573 235.758 38.0964 233.152 42.5263 231.523C46.5654 230.09 56.0118 228.136 59.1388 228.071C61.4841 228.005 61.875 228.266 62.7219 230.155ZM117.901 229.243C118.618 229.634 117.64 230.09 114.448 230.807C111.973 231.393 109.302 232.044 108.455 232.305L106.956 232.761L108.129 230.351L109.302 227.94L113.08 228.266C115.165 228.461 117.38 228.917 117.901 229.243ZM132.298 234.52C143.047 239.145 140.507 248.201 126.696 253.738C120.767 256.214 110.93 256.735 105.393 254.976C100.572 253.478 96.5981 249.895 96.5981 247.093C96.5981 244.878 99.4646 240.579 102.266 238.624C110.474 232.761 124.025 230.937 132.298 234.52ZM148.259 240.123C156.012 242.142 160.507 245.595 160.637 249.764C160.832 256.214 147.673 262.012 135.1 261.035C130.148 260.644 123.308 258.82 123.308 257.973C123.308 257.712 124.285 257.256 125.458 257.061C130.735 256.018 139.53 250.155 140.572 246.898C140.767 246.181 141.679 245.595 142.722 245.465C145.132 245.204 145.588 242.989 143.243 242.989C141.81 242.989 141.549 242.728 141.549 241.035C141.549 238.689 142.396 238.559 148.259 240.123Z" fill="#4E402D"/>
<path d="M119.204 236.931C118.227 237.843 118.813 238.494 120.507 238.299C122.722 238.038 123.308 236.475 121.224 236.475C120.311 236.475 119.399 236.67 119.204 236.931Z" fill="#4E402D"/>
<path d="M108.52 239.537C108.064 239.667 107.673 240.253 107.673 240.774C107.673 241.947 109.888 241.947 110.865 240.839C111.973 239.406 110.605 238.624 108.52 239.537Z" fill="#4E402D"/>
<path d="M128.846 240.384C128.325 241.165 129.953 241.882 131.517 241.556C132.168 241.491 132.755 240.97 132.95 240.514C133.276 239.537 129.432 239.406 128.846 240.384Z" fill="#4E402D"/>
<path d="M104.22 246.702C103.243 247.614 103.829 248.201 105.719 248.201C107.022 248.201 107.673 247.875 107.673 247.223C107.673 246.246 105.067 245.855 104.22 246.702Z" fill="#4E402D"/>
<path d="M124.611 247.289C124.611 247.94 125.067 248.201 126.044 248.07C128.129 247.745 128.324 246.246 126.305 246.246C125.197 246.246 124.611 246.572 124.611 247.289Z" fill="#4E402D"/>
<path d="M115.165 249.764C113.927 250.676 113.927 250.742 115.034 251.133C116.468 251.719 118.292 251.002 117.966 250.025C117.575 248.852 116.533 248.722 115.165 249.764Z" fill="#4E402D"/>
<path d="M150.67 248.136C150.67 248.852 152.624 249.374 153.797 249.048C155.295 248.527 154.579 247.549 152.624 247.549C151.582 247.549 150.67 247.81 150.67 248.136Z" fill="#4E402D"/>
<path d="M146.175 252.696C145.067 253.412 145.784 254.715 147.347 254.715C148.976 254.715 149.497 253.999 148.65 252.956C147.803 251.979 147.412 251.914 146.175 252.696Z" fill="#4E402D"/>
<path d="M135.491 255.106C134.774 255.888 135.686 256.67 137.38 256.67C138.422 256.67 138.943 256.344 138.813 255.823C138.487 254.976 136.207 254.39 135.491 255.106Z" fill="#4E402D"/>
<path d="M195.621 38.0379C195.621 40.8392 200.963 47.5493 203.178 47.5493C204.546 47.5493 204.285 46.6373 202.461 44.9435C201.549 44.0965 199.921 42.0119 198.813 40.2529C196.794 37.1259 195.621 36.3441 195.621 38.0379Z" fill="#4E402D"/>
<path d="M203.764 42.2723C203.373 42.9889 205.849 46.572 209.627 50.6762C211.517 52.8261 214.448 54.7153 215.816 54.7153C216.989 54.7153 216.533 52.8912 215.165 52.4352C214.513 52.2398 211.712 49.699 209.041 46.8326C206.305 43.901 204.025 41.8815 203.764 42.2723Z" fill="#4E402D"/>
<path d="M151.973 54.9763C151.973 55.8883 155.621 57.1261 156.338 56.4095C156.533 56.2141 156.533 55.6278 156.338 55.0414C155.816 53.7385 151.973 53.6734 151.973 54.9763Z" fill="#4E402D"/>
<path d="M143.178 67.5492C141.614 67.9401 140.246 68.9824 140.246 69.6991C140.246 70.0248 141.94 70.2202 144.025 70.1551C147.282 70.0248 148.194 70.2854 151.647 72.4352C155.947 75.1062 160.377 76.0834 163.243 74.9759C166.11 73.8684 165.263 72.9564 161.289 72.9564C158.097 72.9564 156.989 72.5655 153.211 70.3505C148.911 67.7447 145.719 66.8326 143.178 67.5492Z" fill="#4E402D"/>
<path d="M214.644 102.012C213.927 107.224 212.689 110.416 209.302 115.758C208.78 116.54 208.585 117.386 208.78 117.582C209.758 118.559 212.168 115.888 214.318 111.523C216.272 107.614 216.728 105.921 216.989 101.621C217.249 97.3865 217.119 96.4093 216.337 96.4093C215.686 96.4093 215.23 97.9077 214.644 102.012Z" fill="#4E402D"/>
<path d="M204.155 113.282C201.354 117.321 199.855 118.429 199.269 116.865C198.943 116.018 198.553 116.018 196.728 117.191C193.927 118.885 187.673 120.513 183.764 120.513C181.419 120.513 180.637 120.774 180.637 121.491C180.637 122.272 181.484 122.468 184.285 122.468C188.064 122.468 195.491 120.839 196.598 119.797C197.771 118.624 198.422 119.21 197.25 120.513C195.295 122.728 197.706 122.924 200.507 120.774C203.113 118.82 207.999 112.044 207.999 110.481C207.999 108.526 206.761 109.438 204.155 113.282Z" fill="#4E402D"/>
<path d="M225.979 140.839C225.849 141.295 225.523 142.924 225.393 144.423C225.198 145.986 224.155 149.113 223.113 151.458C221.028 155.823 221.419 157.973 223.699 154.976C226.696 151.133 228.976 140.905 227.087 140.253C226.631 140.058 226.11 140.318 225.979 140.839Z" fill="#4E402D"/>
<path d="M219.204 152.826C218.096 154.976 216.207 158.103 214.904 159.927C212.298 163.51 212.103 164.162 213.536 164.162C214.709 164.162 220.702 155.758 221.745 152.631C222.266 151.067 222.266 150.155 221.81 149.699C221.354 149.243 220.507 150.22 219.204 152.826Z" fill="#4E402D"/>
<path d="M210.084 156.475C209.041 158.038 206.631 160.839 204.741 162.729C202.201 165.335 201.484 166.377 202.07 166.963C203.373 168.266 213.211 157.517 213.211 154.781C213.211 153.022 212.038 153.673 210.084 156.475Z" fill="#4E402D"/>
<path d="M16.2948 27.5748C16.5277 27.8794 16.8054 28.2915 17.1279 28.811C17.4503 29.3305 17.7638 29.859 18.0684 30.3965C18.3909 30.934 18.6596 31.4177 18.8746 31.8476L17.2891 32.5732C17.0562 32.0895 16.7964 31.5968 16.5098 31.0952C16.241 30.5757 15.9544 30.074 15.6498 29.5903C15.3632 29.0887 15.0676 28.6318 14.763 28.2198L16.2948 27.5748ZM19.7614 26.2043C20.0122 26.5089 20.2989 26.912 20.6213 27.4136C20.9617 27.9152 21.2932 28.4348 21.6156 28.9722C21.9381 29.5097 22.2068 29.9844 22.4218 30.3965L20.8632 31.1489C20.6303 30.6831 20.3705 30.1994 20.0839 29.6978C19.7972 29.1962 19.4927 28.7035 19.1702 28.2198C18.8656 27.7361 18.5611 27.2972 18.2565 26.903L19.7614 26.2043ZM8.85098 25.3713C8.79723 25.8191 8.74349 26.267 8.68974 26.7149C8.65391 27.1628 8.62704 27.6196 8.60912 28.0854C8.59121 28.8379 8.55537 29.7695 8.50163 30.8802C8.4658 31.991 8.42997 33.1734 8.39414 34.4274C8.37622 35.6636 8.34935 36.8998 8.31352 38.1359C8.2956 39.3721 8.28665 40.4828 8.28665 41.4682C8.28665 42.4535 8.47476 43.2418 8.85098 43.833C9.2272 44.4063 9.74674 44.8273 10.4096 45.096C11.0725 45.3468 11.8339 45.4722 12.6938 45.4722C13.9121 45.4722 15.0138 45.32 15.9992 45.0154C16.9845 44.6929 17.8624 44.2719 18.6327 43.7524C19.4031 43.2149 20.0839 42.6147 20.6751 41.9519C21.2842 41.289 21.8306 40.6082 22.3143 39.9095L23.8461 41.7369C23.3803 42.3639 22.807 43.0268 22.1262 43.7255C21.4634 44.4242 20.6751 45.0691 19.7614 45.6603C18.8477 46.2516 17.7997 46.7353 16.6173 47.1115C15.4349 47.4877 14.1091 47.6758 12.6401 47.6758C11.3502 47.6758 10.2125 47.4788 9.2272 47.0846C8.24186 46.6905 7.4715 46.0545 6.91612 45.1766C6.36075 44.2988 6.08306 43.1343 6.08306 41.6831C6.08306 40.877 6.09202 39.9902 6.10993 39.0227C6.12785 38.0374 6.15472 37.0252 6.19055 35.9861C6.22638 34.947 6.25326 33.9348 6.27117 32.9494C6.307 31.9462 6.33388 31.0235 6.35179 30.1815C6.36971 29.3395 6.37866 28.6408 6.37866 28.0854C6.37866 27.5659 6.36075 27.0822 6.32492 26.6343C6.28909 26.1685 6.22638 25.7385 6.13681 25.3444L8.85098 25.3713ZM8.20603 62.8802C8.15228 63.0415 8.09853 63.2206 8.04479 63.4177C7.99104 63.6147 7.9373 63.7939 7.88355 63.9551C7.81189 64.3134 7.73127 64.7613 7.64169 65.2988C7.55212 65.8362 7.4715 66.4095 7.39984 67.0187C7.32818 67.6278 7.27443 68.219 7.2386 68.7923C7.20277 69.3656 7.19381 69.8672 7.21173 70.2972C7.74919 69.0252 8.49267 67.9413 9.44218 67.0455C10.3917 66.1318 11.4577 65.4331 12.6401 64.9494C13.8404 64.4478 15.0586 64.197 16.2948 64.197C17.7818 64.197 19.0269 64.4657 20.0301 65.0032C21.0334 65.5406 21.7858 66.2662 22.2875 67.1799C22.807 68.0757 23.0668 69.0789 23.0668 70.1897C23.0668 71.39 22.816 72.5007 22.3143 73.5219C21.8127 74.5431 21.0513 75.3582 20.0301 75.9674C19.009 76.5586 17.6922 76.8542 16.0798 76.8542C15.2199 76.8542 14.3868 76.7019 13.5806 76.3973C12.7923 76.0928 12.0668 75.6449 11.4039 75.0537C10.759 74.4625 10.2215 73.7369 9.79153 72.877L10.9202 71.3183C11.4397 72.4112 12.1205 73.2801 12.9625 73.925C13.8225 74.57 14.8616 74.8924 16.0798 74.8924C17.2264 74.8924 18.1669 74.6954 18.9015 74.3012C19.6539 73.8892 20.2093 73.3338 20.5676 72.6351C20.9259 71.9364 21.1051 71.1392 21.1051 70.2434C21.1051 69.4551 20.9438 68.7385 20.6213 68.0936C20.2989 67.4486 19.7793 66.938 19.0627 66.5618C18.3461 66.1677 17.4055 65.9706 16.241 65.9706C15.0586 65.9706 13.9837 66.1766 13.0163 66.5887C12.0489 66.9828 11.1979 67.5203 10.4634 68.2011C9.74674 68.8639 9.15554 69.5985 8.68974 70.4046C8.22394 71.2108 7.91042 72.017 7.74919 72.8232C7.71336 73.0024 7.67752 73.2084 7.64169 73.4413C7.60586 73.6742 7.59691 73.916 7.61482 74.1669C7.61482 74.3281 7.63274 74.552 7.66857 74.8387C7.7044 75.1074 7.74023 75.3851 7.77606 75.6717C7.8298 75.9405 7.87459 76.1644 7.91042 76.3436L6.10993 76.6123C5.89495 75.9315 5.70684 75.0805 5.5456 74.0594C5.40228 73.0203 5.33062 71.9633 5.33062 70.8884C5.33062 70.2434 5.35749 69.5716 5.41124 68.8729C5.46498 68.1563 5.51873 67.4755 5.57248 66.8305C5.64414 66.1677 5.70684 65.5765 5.76059 65.0569C5.83225 64.5195 5.89495 64.0985 5.9487 63.7939C5.96661 63.5968 5.97557 63.3998 5.97557 63.2027C5.97557 63.0056 5.96661 62.8354 5.9487 62.6921L8.20603 62.8802ZM15.9992 61.5903C16.1067 62.0919 16.2142 62.7638 16.3217 63.6058C16.4292 64.4299 16.5187 65.3525 16.5904 66.3737C16.68 67.3949 16.7248 68.434 16.7248 69.491C16.7248 71.0496 16.5904 72.5097 16.3217 73.8713C16.0529 75.2328 15.5782 76.469 14.8974 77.5797C14.2345 78.6726 13.3119 79.6042 12.1295 80.3745L10.3021 79.2459C11.18 78.7442 11.9145 78.153 12.5057 77.4722C13.0969 76.7915 13.5627 76.0301 13.9031 75.188C14.2435 74.346 14.4853 73.4413 14.6287 72.4739C14.772 71.4885 14.8436 70.4584 14.8436 69.3835C14.8436 67.8069 14.772 66.4812 14.6287 65.4063C14.5033 64.3134 14.3868 63.4714 14.2793 62.8802C14.2256 62.6473 14.1629 62.4323 14.0912 62.2353C14.0195 62.0203 13.9568 61.8232 13.9031 61.6441L15.9992 61.5903ZM19.4121 101.168C19.4121 100.416 19.215 99.7532 18.8208 99.1799C18.4446 98.5887 17.9072 98.1318 17.2085 97.8094C16.5277 97.469 15.7305 97.2988 14.8168 97.2988C13.7777 97.2988 12.8013 97.3794 11.8876 97.5406C10.9739 97.7019 10.1409 97.89 9.38844 98.105C8.65391 98.32 8.01792 98.4991 7.48046 98.6424C7.0684 98.7678 6.66531 98.9022 6.27117 99.0455C5.89495 99.1888 5.5456 99.3322 5.22313 99.4755L4.52443 96.9763C4.90065 96.9405 5.30375 96.8867 5.73371 96.8151C6.1816 96.7434 6.60261 96.6628 6.99674 96.5732C7.64169 96.4299 8.38518 96.2597 9.2272 96.0626C10.0871 95.8656 11.0098 95.6864 11.9951 95.5252C12.9984 95.3639 14.0106 95.2833 15.0318 95.2833C16.3037 95.2833 17.4414 95.5162 18.4446 95.982C19.4479 96.4478 20.2362 97.1286 20.8094 98.0244C21.4007 98.9022 21.6963 99.9771 21.6963 101.249C21.6963 102.718 21.3917 104.026 20.7826 105.173C20.1735 106.301 19.3135 107.287 18.2028 108.129C17.1099 108.953 15.82 109.642 14.3331 110.198C12.8461 110.753 11.2337 111.156 9.49593 111.407L8.28665 109.365C9.89902 109.168 11.386 108.854 12.7476 108.424C14.1091 107.976 15.2826 107.421 16.2679 106.758C17.2712 106.095 18.0415 105.298 18.579 104.366C19.1344 103.435 19.4121 102.369 19.4121 101.168ZM8.12541 89.0757C8.85994 89.2369 9.73779 89.3892 10.759 89.5325C11.798 89.6758 12.864 89.8102 13.9568 89.9356C15.0676 90.0431 16.1067 90.1327 17.0741 90.2043C18.0594 90.276 18.8836 90.3118 19.5464 90.3118L19.2239 92.381C18.4715 92.3273 17.5936 92.2646 16.5904 92.1929C15.605 92.1033 14.5749 92.0048 13.5 91.8973C12.443 91.7719 11.4129 91.6465 10.4096 91.5211C9.42427 91.3778 8.54642 91.2434 7.77606 91.118L8.12541 89.0757ZM12.3176 123.978C13.0521 124.085 13.9031 124.175 14.8705 124.247C15.8559 124.3 16.8681 124.327 17.9072 124.327C18.9642 124.309 19.9674 124.274 20.9169 124.22C21.8844 124.148 22.6995 124.059 23.3624 123.951V126.128C22.6458 126.199 21.8037 126.262 20.8363 126.316C19.8868 126.352 18.8925 126.37 17.8534 126.37C16.8322 126.37 15.8379 126.352 14.8705 126.316C13.9031 126.262 13.0521 126.199 12.3176 126.128V123.978ZM13.3656 134.915C13.2402 135.399 13.1417 135.838 13.07 136.232C12.9984 136.626 12.9625 137.011 12.9625 137.388C12.9625 137.692 13.0252 137.997 13.1507 138.301C13.294 138.588 13.5269 138.848 13.8493 139.081C14.1897 139.296 14.6555 139.475 15.2467 139.618C15.8379 139.743 16.5904 139.806 17.5041 139.806C18.7223 139.806 19.8689 139.752 20.9438 139.645C22.0187 139.519 23.0936 139.34 24.1686 139.107L24.2223 141.365C23.3803 141.544 22.395 141.687 21.2663 141.795C20.1555 141.884 18.9015 141.929 17.5041 141.929C15.2467 141.929 13.5896 141.571 12.5326 140.854C11.4935 140.138 10.9739 139.152 10.9739 137.898C10.9739 137.45 11.0098 136.975 11.0814 136.474C11.171 135.954 11.2875 135.372 11.4308 134.727L13.3656 134.915ZM7.18485 121.909C7.14902 122.052 7.09528 122.24 7.02362 122.473C6.96987 122.688 6.90717 122.912 6.8355 123.145C6.78176 123.36 6.73697 123.548 6.70114 123.709C6.61156 124.211 6.50407 124.793 6.37866 125.456C6.25326 126.101 6.12785 126.8 6.00244 127.552C5.89495 128.287 5.78746 129.039 5.67997 129.809C5.59039 130.562 5.50977 131.296 5.43811 132.013C5.38436 132.73 5.35749 133.392 5.35749 134.002C5.35749 134.664 5.37541 135.291 5.41124 135.883C5.46498 136.474 5.52769 137.101 5.59935 137.764C5.76059 137.352 5.93078 136.913 6.10993 136.447C6.28909 135.981 6.46824 135.524 6.64739 135.076C6.84446 134.611 7.01466 134.199 7.15798 133.84L8.28665 134.7C8.05375 135.345 7.80293 136.053 7.5342 136.823C7.26547 137.594 7.02362 138.337 6.80863 139.054C6.61156 139.752 6.46824 140.308 6.37866 140.72C6.34283 140.917 6.307 141.132 6.27117 141.365C6.23534 141.598 6.22638 141.786 6.2443 141.929C6.26221 142.072 6.27117 142.225 6.27117 142.386C6.28909 142.565 6.307 142.726 6.32492 142.87L4.39007 143.004C4.12134 142.054 3.88844 140.836 3.69137 139.349C3.4943 137.844 3.39577 136.187 3.39577 134.378C3.39577 133.392 3.44055 132.389 3.53013 131.368C3.61971 130.329 3.73616 129.326 3.87948 128.358C4.0228 127.373 4.15717 126.477 4.28257 125.671C4.4259 124.847 4.53339 124.157 4.60505 123.602C4.65879 123.279 4.70358 122.957 4.73941 122.634C4.77524 122.294 4.79316 121.98 4.79316 121.694L7.18485 121.909ZM16.2948 155.575C16.5277 155.879 16.8054 156.291 17.1279 156.811C17.4503 157.331 17.7638 157.859 18.0684 158.397C18.3909 158.934 18.6596 159.418 18.8746 159.848L17.2891 160.573C17.0562 160.089 16.7964 159.597 16.5098 159.095C16.241 158.576 15.9544 158.074 15.6498 157.59C15.3632 157.089 15.0676 156.632 14.763 156.22L16.2948 155.575ZM19.7614 154.204C20.0122 154.509 20.2989 154.912 20.6213 155.414C20.9617 155.915 21.2932 156.435 21.6156 156.972C21.9381 157.51 22.2068 157.984 22.4218 158.397L20.8632 159.149C20.6303 158.683 20.3705 158.199 20.0839 157.698C19.7972 157.196 19.4927 156.704 19.1702 156.22C18.8656 155.736 18.5611 155.297 18.2565 154.903L19.7614 154.204ZM8.85098 153.371C8.79723 153.819 8.74349 154.267 8.68974 154.715C8.65391 155.163 8.62704 155.62 8.60912 156.085C8.59121 156.838 8.55537 157.769 8.50163 158.88C8.4658 159.991 8.42997 161.173 8.39414 162.427C8.37622 163.664 8.34935 164.9 8.31352 166.136C8.2956 167.372 8.28665 168.483 8.28665 169.468C8.28665 170.454 8.47476 171.242 8.85098 171.833C9.2272 172.406 9.74674 172.827 10.4096 173.096C11.0725 173.347 11.8339 173.472 12.6938 173.472C13.9121 173.472 15.0138 173.32 15.9992 173.015C16.9845 172.693 17.8624 172.272 18.6327 171.752C19.4031 171.215 20.0839 170.615 20.6751 169.952C21.2842 169.289 21.8306 168.608 22.3143 167.91L23.8461 169.737C23.3803 170.364 22.807 171.027 22.1262 171.725C21.4634 172.424 20.6751 173.069 19.7614 173.66C18.8477 174.252 17.7997 174.735 16.6173 175.111C15.4349 175.488 14.1091 175.676 12.6401 175.676C11.3502 175.676 10.2125 175.479 9.2272 175.085C8.24186 174.69 7.4715 174.054 6.91612 173.177C6.36075 172.299 6.08306 171.134 6.08306 169.683C6.08306 168.877 6.09202 167.99 6.10993 167.023C6.12785 166.037 6.15472 165.025 6.19055 163.986C6.22638 162.947 6.25326 161.935 6.27117 160.949C6.307 159.946 6.33388 159.024 6.35179 158.182C6.36971 157.339 6.37866 156.641 6.37866 156.085C6.37866 155.566 6.36075 155.082 6.32492 154.634C6.28909 154.168 6.22638 153.739 6.13681 153.344L8.85098 153.371Z" fill="#4E402D"/>
<path d="M286.715 56.9682C286.679 57.2727 286.643 57.64 286.607 58.07C286.59 58.482 286.572 58.8493 286.554 59.1717C286.482 61.9128 286.24 64.3134 285.828 66.3737C285.416 68.416 284.843 70.2076 284.108 71.7483C283.392 73.2711 282.514 74.6058 281.475 75.7524C280.454 76.8989 279.28 77.9291 277.954 78.8428L275.993 77.2573C276.423 77.0244 276.888 76.7288 277.39 76.3704C277.892 76.0121 278.349 75.6449 278.761 75.2687C279.603 74.5162 280.355 73.6473 281.018 72.662C281.699 71.6766 282.281 70.548 282.765 69.276C283.266 68.004 283.651 66.5439 283.92 64.8957C284.207 63.2296 284.359 61.3305 284.377 59.1986C284.377 59.0016 284.368 58.7687 284.35 58.4999C284.332 58.2312 284.305 57.9625 284.27 57.6937C284.252 57.425 284.225 57.1831 284.189 56.9682H286.715ZM296.04 62.5577C296.004 62.7906 295.968 63.0235 295.932 63.2564C295.914 63.4893 295.906 63.6954 295.906 63.8745C295.888 64.3761 295.852 65.0659 295.798 65.9437C295.762 66.8216 295.7 67.7801 295.61 68.8191C295.538 69.8403 295.44 70.8704 295.314 71.9095C295.207 72.9486 295.064 73.9071 294.884 74.7849C294.705 75.6449 294.499 76.3346 294.266 76.8542C293.998 77.4095 293.63 77.8216 293.164 78.0903C292.717 78.359 292.125 78.4934 291.391 78.4934C290.71 78.4934 289.993 78.4665 289.241 78.4128C288.489 78.377 287.763 78.3411 287.064 78.3053L286.796 76.0748C287.53 76.1644 288.238 76.2361 288.919 76.2898C289.617 76.3436 290.244 76.3704 290.8 76.3704C291.194 76.3704 291.516 76.3077 291.767 76.1823C292.018 76.0569 292.215 75.824 292.358 75.4836C292.573 75.0716 292.752 74.5073 292.896 73.7906C293.039 73.074 293.164 72.2678 293.272 71.3721C293.379 70.4763 293.469 69.5716 293.541 68.6579C293.612 67.7442 293.657 66.8753 293.675 66.0512C293.711 65.2271 293.729 64.5284 293.729 63.9551H279.567C279.029 63.9551 278.501 63.9641 277.981 63.982C277.462 63.982 276.96 64.0089 276.476 64.0626V61.7784C276.942 61.8322 277.444 61.877 277.981 61.9128C278.519 61.9307 279.038 61.9397 279.54 61.9397H292.815C293.173 61.9397 293.487 61.9307 293.756 61.9128C294.042 61.877 294.302 61.8411 294.535 61.8053L296.04 62.5577ZM296.201 92.2467C296.112 92.4437 296.031 92.6498 295.959 92.8647C295.906 93.0797 295.852 93.3216 295.798 93.5903C295.655 94.3069 295.467 95.0952 295.234 95.9551C295.001 96.7972 294.714 97.675 294.374 98.5887C294.051 99.4845 293.666 100.362 293.218 101.222C292.788 102.064 292.314 102.826 291.794 103.506C290.97 104.546 290.056 105.522 289.053 106.436C288.05 107.331 286.903 108.138 285.613 108.854C284.323 109.571 282.854 110.189 281.206 110.708L279.379 108.693C281.134 108.245 282.648 107.708 283.92 107.081C285.21 106.436 286.339 105.701 287.306 104.877C288.274 104.053 289.125 103.166 289.859 102.217C290.504 101.41 291.059 100.488 291.525 99.4486C292.009 98.4095 292.403 97.3704 292.708 96.3314C293.03 95.2744 293.254 94.3159 293.379 93.4559C293.129 93.4559 292.654 93.4559 291.955 93.4559C291.257 93.4559 290.432 93.4559 289.483 93.4559C288.533 93.4559 287.539 93.4559 286.5 93.4559C285.479 93.4559 284.493 93.4559 283.544 93.4559C282.594 93.4559 281.77 93.4559 281.072 93.4559C280.373 93.4559 279.898 93.4559 279.647 93.4559C279.11 93.4559 278.617 93.4649 278.169 93.4828C277.721 93.5007 277.318 93.5187 276.96 93.5366V91.1717C277.211 91.1897 277.489 91.2165 277.793 91.2524C278.098 91.2882 278.411 91.3151 278.734 91.333C279.056 91.333 279.361 91.333 279.647 91.333C279.862 91.333 280.248 91.333 280.803 91.333C281.358 91.333 282.012 91.333 282.765 91.333C283.535 91.333 284.35 91.333 285.21 91.333C286.088 91.333 286.948 91.333 287.79 91.333C288.65 91.333 289.447 91.333 290.182 91.333C290.934 91.333 291.57 91.333 292.09 91.333C292.609 91.333 292.958 91.333 293.138 91.333C293.335 91.333 293.559 91.333 293.809 91.333C294.06 91.3151 294.311 91.2703 294.562 91.1986L296.201 92.2467ZM278.546 128.224C278.832 128.26 279.155 128.287 279.513 128.304C279.889 128.322 280.185 128.331 280.4 128.331H292.761C293.102 128.331 293.433 128.322 293.756 128.304C294.078 128.287 294.383 128.26 294.669 128.224V130.374C294.383 130.338 294.069 130.32 293.729 130.32C293.388 130.32 293.066 130.32 292.761 130.32H280.4C280.185 130.32 279.889 130.32 279.513 130.32C279.155 130.32 278.832 130.338 278.546 130.374V128.224ZM285.344 141.311V129.433H287.521V141.311H285.344ZM277.229 140.048C277.551 140.084 277.874 140.12 278.196 140.155C278.537 140.173 278.859 140.182 279.164 140.182H294.024C294.347 140.182 294.66 140.173 294.965 140.155C295.27 140.12 295.556 140.084 295.825 140.048V142.305C295.556 142.269 295.243 142.243 294.884 142.225C294.526 142.225 294.239 142.225 294.024 142.225H279.164C278.877 142.225 278.564 142.225 278.223 142.225C277.901 142.243 277.569 142.269 277.229 142.305V140.048Z" fill="#4E402D"/>
<path d="M382.18 81.0394H367.92V71.3674C371.805 71.3674 374.905 71.0367 377.22 70.3754C379.617 69.714 381.519 68.6394 382.924 67.1514C384.329 65.5807 385.569 63.3487 386.644 60.4554H395.82V147.255H382.18V81.0394ZM424.884 137.831C424.884 131.631 425.876 126.341 427.86 121.959C429.844 117.495 433.399 112.577 438.524 107.203C443.567 101.83 447.039 97.242 448.94 93.4394C450.924 89.6367 451.916 85.6687 451.916 81.5354C451.916 77.8154 451.296 75.2527 450.056 73.8474C448.899 72.3594 447.163 71.6154 444.848 71.6154C440.136 71.6154 437.78 74.4674 437.78 80.1714V89.4714H424.884V81.0394C424.884 74.0127 426.62 68.6394 430.092 64.9194C433.564 61.1167 438.607 59.2154 445.22 59.2154C451.834 59.2154 456.876 61.1167 460.348 64.9194C463.82 68.6394 465.556 74.0127 465.556 81.0394C465.556 86.33 464.275 91.4967 461.712 96.5394C459.232 101.582 454.892 107.369 448.692 113.899C444.642 118.198 441.914 121.711 440.508 124.439C439.103 127.085 438.4 129.937 438.4 132.995V134.855H464.316V147.255H424.884V137.831ZM519.44 60.4554H556.64V72.8554H533.08V95.7954H551.804V108.195H533.08V134.855H556.64V147.255H519.44V60.4554ZM576.887 60.4554H593.999L607.267 112.411H607.515V60.4554H619.667V147.255H605.655L589.287 83.8914H589.039V147.255H576.887V60.4554ZM674.464 60.4554H694.552C701.331 60.4554 706.415 62.274 709.804 65.9114C713.194 69.5487 714.888 74.8807 714.888 81.9074V90.4634C714.888 97.49 713.194 102.822 709.804 106.459C706.415 110.097 701.331 111.915 694.552 111.915H688.104V147.255H674.464V60.4554ZM694.552 99.5154C696.784 99.5154 698.438 98.8954 699.512 97.6554C700.67 96.4154 701.248 94.3074 701.248 91.3314V81.0394C701.248 78.0634 700.67 75.9554 699.512 74.7154C698.438 73.4754 696.784 72.8554 694.552 72.8554H688.104V99.5154H694.552ZM754.536 148.495C747.923 148.495 742.88 146.635 739.408 142.915C735.936 139.113 734.2 133.698 734.2 126.671V60.4554H747.84V127.663C747.84 130.639 748.419 132.789 749.576 134.111C750.816 135.434 752.552 136.095 754.784 136.095C757.016 136.095 758.711 135.434 759.868 134.111C761.108 132.789 761.728 130.639 761.728 127.663V60.4554H774.872V126.671C774.872 133.698 773.136 139.113 769.664 142.915C766.192 146.635 761.15 148.495 754.536 148.495ZM796.987 60.4554H814.099L827.367 112.411H827.615V60.4554H839.767V147.255H825.755L809.387 83.8914H809.139V147.255H796.987V60.4554ZM872.969 72.8554H858.709V60.4554H900.869V72.8554H886.609V147.255H872.969V72.8554ZM939.105 148.495C932.409 148.495 927.283 146.594 923.729 142.791C920.174 138.989 918.397 133.615 918.397 126.671V81.0394C918.397 74.0954 920.174 68.722 923.729 64.9194C927.283 61.1167 932.409 59.2154 939.105 59.2154C945.801 59.2154 950.926 61.1167 954.481 64.9194C958.035 68.722 959.813 74.0954 959.813 81.0394V126.671C959.813 133.615 958.035 138.989 954.481 142.791C950.926 146.594 945.801 148.495 939.105 148.495ZM939.105 136.095C943.817 136.095 946.173 133.243 946.173 127.539V80.1714C946.173 74.4674 943.817 71.6154 939.105 71.6154C934.393 71.6154 932.037 74.4674 932.037 80.1714V127.539C932.037 133.243 934.393 136.095 939.105 136.095Z" fill="#4E402D"/>
<path d="M378.983 214.715C376.561 214.715 374.705 214.025 373.417 212.645C372.16 211.265 371.531 209.318 371.531 206.803V189.507C371.531 186.993 372.16 185.045 373.417 183.665C374.705 182.285 376.561 181.595 378.983 181.595C381.406 181.595 383.246 182.285 384.503 183.665C385.791 185.045 386.435 186.993 386.435 189.507V192.911H381.651V189.185C381.651 187.192 380.808 186.195 379.121 186.195C377.435 186.195 376.591 187.192 376.591 189.185V207.171C376.591 209.134 377.435 210.115 379.121 210.115C380.808 210.115 381.651 209.134 381.651 207.171V202.249H386.435V206.803C386.435 209.318 385.791 211.265 384.503 212.645C383.246 214.025 381.406 214.715 378.983 214.715ZM397.973 182.055H404.827L410.071 214.255H405.011L404.091 207.861V207.953H398.341L397.421 214.255H392.729L397.973 182.055ZM403.493 203.583L401.239 187.667H401.147L398.939 203.583H403.493ZM417.125 182.055H430.511V186.655H422.185V195.625H428.717V200.225H422.185V214.255H417.125V182.055ZM437.538 182.055H451.338V186.655H442.598V195.165H449.544V199.765H442.598V209.655H451.338V214.255H437.538V182.055ZM444.898 174.603H450.418L445.496 179.893H441.678L444.898 174.603ZM476.106 214.715C474.266 214.715 472.871 214.087 471.92 212.829C470.969 211.572 470.494 209.747 470.494 207.355V203.997C470.494 202.311 470.785 200.9 471.368 199.765C471.951 198.631 472.901 197.803 474.22 197.281V197.189C473.024 196.699 472.135 195.917 471.552 194.843C471 193.739 470.724 192.329 470.724 190.611V190.013C470.724 187.407 471.353 185.429 472.61 184.079C473.867 182.73 475.753 182.055 478.268 182.055H484.064V186.655H478.36C477.532 186.655 476.888 186.901 476.428 187.391C475.999 187.882 475.784 188.679 475.784 189.783V191.761C475.784 192.988 476.029 193.862 476.52 194.383C477.041 194.905 477.808 195.165 478.82 195.165H480.798V191.577H485.766V195.165H487.192V199.765H485.766V210.345C485.766 211.265 485.797 212.017 485.858 212.599C485.919 213.151 486.073 213.703 486.318 214.255H481.258C481.013 213.581 480.859 212.737 480.798 211.725H480.706C480.154 212.737 479.51 213.489 478.774 213.979C478.069 214.47 477.179 214.715 476.106 214.715ZM477.992 210.115C479.587 210.115 480.522 209.149 480.798 207.217V199.765H478.866C477.701 199.765 476.857 200.087 476.336 200.731C475.815 201.345 475.554 202.387 475.554 203.859V207.125C475.554 208.199 475.769 208.965 476.198 209.425C476.627 209.885 477.225 210.115 477.992 210.115ZM506.565 182.055H514.017C516.532 182.055 518.418 182.73 519.675 184.079C520.932 185.429 521.561 187.407 521.561 190.013V193.187C521.561 195.794 520.932 197.772 519.675 199.121C518.418 200.471 516.532 201.145 514.017 201.145H511.625V214.255H506.565V182.055ZM514.017 196.545C514.845 196.545 515.458 196.315 515.857 195.855C516.286 195.395 516.501 194.613 516.501 193.509V189.691C516.501 188.587 516.286 187.805 515.857 187.345C515.458 186.885 514.845 186.655 514.017 186.655H511.625V196.545H514.017ZM531.202 182.055H538.056L543.3 214.255H538.24L537.32 207.861V207.953H531.57L530.65 214.255H525.958L531.202 182.055ZM536.722 203.583L534.468 187.667H534.376L532.168 203.583H536.722ZM556.798 214.715C554.345 214.715 552.489 214.025 551.232 212.645C549.975 211.235 549.346 209.226 549.346 206.619V204.779H554.13V206.987C554.13 209.073 555.004 210.115 556.752 210.115C557.611 210.115 558.255 209.87 558.684 209.379C559.144 208.858 559.374 208.03 559.374 206.895C559.374 205.546 559.067 204.365 558.454 203.353C557.841 202.311 556.706 201.069 555.05 199.627C552.965 197.787 551.508 196.131 550.68 194.659C549.852 193.157 549.438 191.47 549.438 189.599C549.438 187.054 550.082 185.091 551.37 183.711C552.658 182.301 554.529 181.595 556.982 181.595C559.405 181.595 561.229 182.301 562.456 183.711C563.713 185.091 564.342 187.085 564.342 189.691V191.025H559.558V189.369C559.558 188.265 559.343 187.468 558.914 186.977C558.485 186.456 557.856 186.195 557.028 186.195C555.341 186.195 554.498 187.223 554.498 189.277C554.498 190.443 554.805 191.531 555.418 192.543C556.062 193.555 557.212 194.782 558.868 196.223C560.984 198.063 562.441 199.735 563.238 201.237C564.035 202.74 564.434 204.503 564.434 206.527C564.434 209.165 563.775 211.189 562.456 212.599C561.168 214.01 559.282 214.715 556.798 214.715ZM575.891 186.655H570.601V182.055H586.241V186.655H580.951V214.255H575.891V186.655ZM593.291 182.055H607.091V186.655H598.351V195.165H605.297V199.765H598.351V209.655H607.091V214.255H593.291V182.055ZM614.602 182.055H619.662V209.655H627.988V214.255H614.602V182.055ZM635.015 182.055H648.815V186.655H640.075V195.165H647.021V199.765H640.075V209.655H648.815V214.255H635.015V182.055ZM656.325 182.055H663.823C666.43 182.055 668.331 182.669 669.527 183.895C670.723 185.091 671.321 186.947 671.321 189.461V191.439C671.321 194.782 670.217 196.898 668.009 197.787V197.879C669.236 198.247 670.095 198.999 670.585 200.133C671.107 201.268 671.367 202.786 671.367 204.687V210.345C671.367 211.265 671.398 212.017 671.459 212.599C671.521 213.151 671.674 213.703 671.919 214.255H666.767C666.583 213.734 666.461 213.243 666.399 212.783C666.338 212.323 666.307 211.495 666.307 210.299V204.411C666.307 202.939 666.062 201.912 665.571 201.329C665.111 200.747 664.299 200.455 663.133 200.455H661.385V214.255H656.325V182.055ZM663.225 195.855C664.237 195.855 664.989 195.595 665.479 195.073C666.001 194.552 666.261 193.678 666.261 192.451V189.967C666.261 188.802 666.047 187.959 665.617 187.437C665.219 186.916 664.575 186.655 663.685 186.655H661.385V195.855H663.225ZM679.478 182.055H684.538V214.255H679.478V182.055ZM682.468 174.603H687.988L683.066 179.893H679.248L682.468 174.603ZM696.838 182.055H703.692L708.936 214.255H703.876L702.956 207.861V207.953H697.206L696.286 214.255H691.594L696.838 182.055ZM702.358 203.583L700.104 187.667H700.012L697.804 203.583H702.358Z" fill="#4E402D"/>
</svg>
