<svg width="231" height="282" viewBox="0 0 231 282" fill="none" xmlns="http://www.w3.org/2000/svg">
<path d="M108.107 0.34384C107.458 0.942416 107.758 3.3866 109.005 8.57426C109.703 11.4175 110.401 16.0066 110.601 18.7501L110.9 23.7881L109.204 25.2346C103.667 29.9235 99.7768 35.5102 98.3302 40.8974C97.582 43.5909 96.8836 44.9876 95.8361 45.9354C93.6912 47.8807 88.7531 49.3273 82.2685 49.876C74.487 50.5743 73.9383 50.724 73.0405 52.4698C71.7934 54.914 72.2424 61.3487 73.9383 64.9402C74.6865 66.5364 75.8338 68.3321 76.4823 68.9307C77.1307 69.5791 78.4775 71.5744 79.4751 73.42C82.8172 79.4556 88.1544 82.8974 97.7815 85.1421C108.306 87.6362 109.603 88.135 112.247 90.6789C115.489 93.8713 116.238 96.2656 115.04 100.107C114.442 102.002 113.494 103.548 111.948 105.045C110.751 106.292 109.753 107.389 109.753 107.489C109.753 107.639 110.651 107.738 111.748 107.738C113.494 107.738 113.893 107.489 115.24 105.643C117.185 103 117.884 100.256 117.634 96.4652C117.285 90.6789 114.192 87.7359 106.261 85.5411C93.4917 81.9996 87.8053 79.6053 84.0642 76.2133C81.3207 73.7193 81.221 72.7216 83.8647 74.268C89.0523 77.2608 97.5321 77.61 102.919 75.0661C105.264 73.9687 105.812 73.5198 105.663 72.6718C105.463 71.3749 103.767 70.8262 103.767 72.0732C103.767 72.572 102.819 73.3202 101.423 73.9687C99.5273 74.8167 98.1307 75.0661 94.5392 75.0661C88.8527 75.0162 84.563 73.42 80.5227 69.7288C77.8291 67.2347 77.8291 67.2347 77.8291 64.2917C77.8291 61.5482 77.9288 61.3487 79.3754 60.6005C80.9217 59.8024 83.8148 55.762 83.8148 54.4152C83.8148 54.0161 83.4656 53.2679 82.9668 52.7691C82.2186 51.9211 82.2685 51.8713 83.9146 51.8713C86.3089 51.8713 91.1473 50.9734 93.6413 50.0256C97.5321 48.5791 101.273 43.4912 101.273 39.6005C101.273 39.0518 101.972 37.2061 102.77 35.5102C106.012 29.0755 114.392 23.1895 123.67 20.8949C127.361 19.9472 128.858 19.8474 135.891 20.0968C146.565 20.446 147.962 20.8949 144.421 22.99C142.375 24.237 142.176 24.9353 143.922 24.9353C146.715 24.9353 150.107 20.4959 153.1 12.8641C153.748 11.3177 154.995 9.12295 155.993 8.02556C159.086 4.38422 161.38 5.23221 167.815 12.2655C172.055 16.8546 175.347 18.9496 178.44 18.9496C179.637 18.9496 180.435 19.3486 181.432 20.446C182.729 21.8926 184.076 22.4413 184.076 21.4436C184.076 20.6455 185.373 20.8949 186.77 21.9923C187.767 22.7904 188.067 23.4389 188.067 24.8855C188.067 27.6788 187.169 29.9235 186.022 29.9235C185.473 29.9235 185.074 30.2726 185.074 30.7216C185.074 31.1705 184.375 33.0161 183.528 34.8118C181.682 38.6028 178.19 42.3938 176.444 42.3938C174.25 42.3938 172.304 39.2513 170.409 32.7168C169.91 31.1206 168.463 27.2299 167.117 24.0874C165.72 20.9448 163.974 16.1562 163.126 13.5125C161.58 8.4745 160.582 6.97806 158.736 6.97806C157.39 6.97806 157.29 7.82603 158.587 8.22508C159.485 8.47449 161.63 12.9638 161.63 14.4603C161.63 15.3581 163.774 21.1942 164.972 23.5885C165.62 24.8855 167.216 29.0755 168.563 32.8166C171.506 41.1966 172.204 42.6432 174 43.7406C174.748 44.1895 175.447 44.6385 175.546 44.7382C175.646 44.7881 175.147 45.7857 174.399 46.8831C173.003 49.028 172.853 49.6765 173.551 50.1254C173.85 50.2751 174.998 49.028 176.145 47.3819C177.342 45.7358 178.589 44.3891 178.938 44.3891C179.288 44.3891 179.587 44.4888 179.587 44.5387C179.587 44.6385 180.036 46.4841 180.584 48.629C183.029 58.1563 184.525 71.5744 184.575 83.7953C184.625 92.7241 185.024 95.6172 186.67 97.9117C187.618 99.2086 187.618 99.4082 186.919 99.8072C186.321 100.156 186.271 100.605 186.57 101.653C186.82 102.401 187.618 105.394 188.366 108.337C189.164 111.579 191.209 117.216 193.653 122.803C202.532 143.054 204.228 148.791 204.278 157.869C204.278 163.157 204.129 164.154 203.081 166.349C202.433 167.696 201.684 170.29 201.485 172.085C201.285 173.881 200.936 176.325 200.737 177.572L200.437 179.817L201.485 178.819C202.233 178.071 202.682 176.774 202.981 174.33C203.53 170.389 206.273 162.458 206.722 163.605C208.319 167.795 212.958 182.261 212.758 182.461C212.509 182.71 199.041 181.762 198.741 181.413C198.642 181.313 198.891 180.415 199.29 179.418C200.188 177.223 200.288 174.43 199.44 174.679C199.14 174.779 198.592 175.727 198.243 176.724C197.444 178.969 195.2 182.311 193.105 184.256C191.608 185.653 191.558 185.703 191.558 184.655C191.558 183.358 189.713 183.109 189.214 184.306C188.316 186.7 180.934 188.347 173.102 187.898C159.385 187.1 147.164 181.962 129.456 169.591C122.124 164.453 119.679 163.306 113.195 161.81C104.865 159.964 102.171 158.917 99.4276 156.423C97.7316 154.926 97.981 153.879 100.276 152.931C101.373 152.482 102.869 152.133 103.518 152.133C104.316 152.133 104.765 151.833 104.765 151.385C104.765 150.387 101.822 150.387 99.3777 151.385C97.6817 152.133 97.4822 152.133 96.9335 151.335C95.1877 148.99 97.0333 146.795 101.223 146.197C102.77 145.997 103.518 145.648 103.518 145.149C103.518 144.052 102.021 143.952 99.2779 144.85C96.0855 145.898 95.7862 145.848 95.7862 144.501C95.7862 142.705 97.0831 141.308 99.5772 140.46C100.824 140.061 102.42 139.114 103.069 138.415C104.017 137.368 104.665 137.168 106.91 137.168C110.302 137.168 113.743 138.864 120.228 143.653C129.606 150.636 132.898 152.033 149.608 156.173C156.292 157.819 164.223 159.964 167.216 160.912C170.259 161.909 172.803 162.558 172.953 162.408C173.102 162.259 173.102 161.86 172.953 161.461C172.653 160.712 170.508 159.814 164.024 157.819C158.886 156.273 158.986 156.722 162.278 149.389C164.622 144.251 166.967 140.411 169.71 137.118C171.755 134.624 172.055 133.677 170.858 133.677C169.261 133.677 162.078 144.85 159.634 151.135C159.036 152.632 158.238 154.377 157.888 154.926L157.19 156.023L149.808 154.328C135.043 150.985 130.055 148.791 120.228 141.458C114.591 137.218 111.798 135.772 108.406 135.323C106.461 135.073 106.261 134.924 106.561 133.976C107.209 132.031 111.349 126.444 112.147 126.444C112.846 126.444 112.995 125.995 112.846 123.95C112.546 117.864 112.796 115.52 114.043 113.026C115.489 110.133 115.34 109.235 113.444 109.634C112.496 109.783 112.197 109.684 112.447 109.285C112.945 108.536 112.496 108.586 110.701 109.534C108.905 110.432 109.005 111.43 110.9 111.629C111.648 111.729 112.247 111.878 112.247 111.928C112.247 112.028 111.898 113.076 111.499 114.223C111.1 115.37 110.751 117.964 110.751 119.959C110.751 123.351 110.651 123.7 108.705 126.593C107.608 128.24 105.513 130.883 104.116 132.43L101.523 135.173L98.5796 133.677C96.2851 132.529 94.9881 132.18 92.7435 132.18H89.8005V130.185C89.8005 127.691 88.354 126.145 84.9122 124.947C82.2186 124.05 74.0381 122.703 70.9953 122.703C69.7982 122.703 68.8504 122.453 68.8504 122.154C68.8504 121.855 69.848 120.209 71.0951 118.463C73.8884 114.522 74.8861 111.829 74.8861 107.938C74.8861 102.152 73.0903 99.8571 65.1592 95.6671C53.3373 89.3321 51.5416 85.192 55.2328 72.7216C58.0761 63.1444 57.677 57.857 53.9858 55.1135C52.0404 53.7169 47.0024 53.7169 45.1069 55.1634C43.0119 56.7097 41.9643 58.4057 41.5154 60.7501C41.2161 62.6955 40.9667 62.9948 39.2707 63.5934C35.5296 64.8903 34.1329 67.4342 34.532 72.1231C34.7315 74.3677 35.0807 75.1658 36.3776 76.5126C37.9738 78.1587 37.9738 78.2086 37.2256 79.705C36.0783 81.9497 36.1781 86.04 37.475 88.135C38.8218 90.2799 41.7149 91.7763 44.6579 91.7763C46.6033 91.7763 46.9026 91.926 46.9026 92.7739C46.9026 93.3725 48.1497 95.0685 49.7957 96.7146C52.19 99.1588 53.487 99.9569 57.8266 101.802C64.411 104.596 66.8552 106.691 66.8552 109.634C66.8552 112.427 66.3065 113.574 63.6628 116.717C62.4157 118.164 61.2685 120.109 61.0689 120.957L60.7696 122.553L54.9834 123.152C48.1996 123.9 43.5107 125.197 42.0641 126.793C40.7173 128.289 40.418 132.13 40.9667 142.156C41.3658 149.589 43.0617 160.712 44.6081 165.75C45.0071 167.097 45.1069 168.195 44.8575 168.394C44.6081 168.544 40.1187 168.294 34.931 167.895C29.6935 167.446 21.1238 166.584 15.8764 166.349C9.16737 166.049 8.99279 165.96 7.49635 165.71C5.90015 165.411 4.80276 166.209 5.60086 167.007C5.85027 167.257 9.04267 167.496 14.2303 167.895C19.4679 168.344 9.04264 167.546 15.4773 168.045C21.912 168.594 30.6911 169.292 34.931 169.591C44.1092 170.29 46.1045 170.639 46.304 171.636C46.4038 172.185 45.456 172.534 42.3634 172.983C34.3325 174.28 27.1994 177.073 25.0046 179.867C21.8621 183.857 25.5035 187.948 34.6816 190.94C42.9619 193.684 61.6675 195.929 70.696 195.38C74.7364 195.081 75.5345 195.18 76.9811 196.028C79.6747 197.624 84.6627 198.672 88.4537 198.373C90.2993 198.273 91.9454 198.323 92.0451 198.522C92.1948 198.772 93.9406 199.57 95.9359 200.368C99.2281 201.665 100.076 201.765 106.012 201.765C111.898 201.765 112.846 201.615 116.387 200.318C118.931 199.42 121.026 198.223 122.523 196.826C124.468 195.081 124.867 194.432 125.067 192.437C125.216 191.04 125.067 189.444 124.717 188.496C123.321 185.204 117.485 182.211 110.751 181.313C109.005 181.064 107.01 180.366 105.264 179.268C103.767 178.32 101.323 177.173 99.8765 176.674C96.3349 175.427 96.0357 174.928 99.0285 175.278C100.425 175.427 103.119 175.677 105.014 175.826C106.96 175.976 115.34 176.674 123.72 177.373C138.535 178.57 138.983 178.67 141.178 180.066C145.268 182.61 152.352 185.952 156.641 187.299C166.269 190.292 178.789 190.841 185.523 188.546C187.767 187.798 188.865 187.648 189.214 187.997C190.162 188.945 190.91 188.646 194.302 186.052C198.193 183.109 197.245 183.159 212.758 184.556C226.226 185.753 227.972 185.803 227.972 184.855C227.972 184.057 226.475 183.757 219.841 183.309C216.499 183.059 215.402 182.76 215.053 182.161C214.454 180.964 210.813 170.339 208.967 164.354C208.069 161.411 207.271 157.37 207.022 154.577C206.423 148.092 204.478 142.456 196.896 125.446C192.506 115.62 190.461 110.133 189.563 106.092C188.965 103.449 188.965 103.199 189.862 102.501C190.81 101.753 190.81 101.753 189.862 101.004C189.314 100.605 189.164 100.256 189.463 100.256C190.162 100.256 190.262 98.4604 189.613 98.0115C189.364 97.8618 188.665 96.4652 188.067 94.869C187.119 92.4747 186.87 90.4295 186.52 81.3012C185.872 65.7383 184.924 58.1064 182.28 47.5316L180.984 42.3938L183.228 39.8997C184.425 38.5529 185.772 36.7073 186.171 35.8095C190.86 25.6337 191.159 24.5363 189.862 21.9923C189.064 20.4959 187.568 19.7477 180.834 17.4531C174.898 15.408 171.755 13.4626 167.516 9.0232C163.276 4.68352 161.48 3.48637 159.036 3.48637C156.093 3.48637 154.297 5.48161 150.706 12.7144C147.763 18.7999 147.563 18.9995 146.266 18.7501C145.518 18.5505 143.173 18.2013 141.078 17.9519C135.242 17.2536 131.202 14.9092 120.577 6.3296C117.684 3.98518 114.392 1.59088 113.295 0.992299C111.349 -0.00532753 108.755 -0.304617 108.107 0.34384ZM117.584 6.52912C119.829 8.27497 122.872 10.6693 124.318 11.8165C125.765 12.9638 128.259 14.6598 129.805 15.6075L132.698 17.3534L131.152 17.6527C130.304 17.8023 128.957 17.9519 128.259 17.9519C127.511 17.9519 124.867 18.5006 122.323 19.1491L117.734 20.3463L117.485 18.5006C116.736 13.9116 115.489 10.2702 113.195 6.52912C111.848 4.28446 110.751 2.3391 110.751 2.18946C110.751 1.69064 113.743 3.58612 117.584 6.52912ZM114.691 13.8617C116.038 17.8522 116.088 21.2441 114.791 21.9425C113.045 22.8403 112.746 22.541 112.746 19.7976C112.746 17.5529 112.397 15.2085 111 7.47686C110.651 5.7809 110.701 5.83079 112.197 8.27498C112.995 9.67165 114.143 12.2156 114.691 13.8617ZM53.038 56.8594C55.981 59.2038 56.0309 63.6432 53.1378 73.0209C50.8433 80.3535 50.8433 83.9948 53.1877 88.2846C54.9335 91.5269 57.3777 93.5222 63.4134 96.8143C69.5986 100.156 71.0452 101.304 72.2922 103.897C74.1877 107.838 73.2899 111.878 69.0998 118.213C67.1545 121.156 66.3564 122.803 66.3564 124C66.3564 125.895 66.6556 126.045 67.8528 124.947C68.601 124.299 69.3991 124.249 73.5393 124.698C78.8766 125.297 85.5606 126.843 86.6081 127.741C87.8053 128.738 87.3564 129.586 85.1117 130.434C83.2162 131.183 82.3184 131.183 78.4775 130.734C70.0476 129.736 64.1616 129.586 57.1283 130.235C47.6509 131.133 45.1568 131.083 43.9097 129.936C43.361 129.437 42.9121 128.838 42.9121 128.639C42.9121 127.142 52.3896 124.698 58.1259 124.698C60.3706 124.698 60.8694 124.898 61.5677 125.945C62.8148 127.841 63.2637 127.092 63.0143 123.551L62.7649 120.408L65.3088 117.665C68.1521 114.522 68.8504 113.026 68.8504 110.133C68.8504 105.793 66.3065 103.199 58.8742 100.057C57.0784 99.3084 54.6841 98.1112 53.487 97.4129C51.1426 96.0661 48.3991 92.325 48.3991 90.4295C48.3991 89.2823 48.2993 89.2823 45.2565 89.5815C42.3634 89.8808 42.0142 89.7811 40.5178 88.534C37.0261 85.591 37.4251 80.8523 41.4156 78.8072C43.5605 77.7098 43.6603 76.8119 41.5653 76.8119C39.8693 76.8119 37.6246 75.4152 36.9762 73.9687C36.6769 73.3202 36.4275 71.7739 36.4275 70.5269C36.4275 68.6813 36.7268 67.9829 37.874 66.7858C39.4702 65.2394 42.1639 64.7905 43.3111 65.9378C43.7601 66.3867 44.0594 66.3867 44.4584 65.9877C44.8575 65.5886 44.7577 65.0399 44.209 63.9425C43.2613 62.0969 43.2114 60.5007 44.1092 58.9544C45.7055 56.0114 50.4941 54.8641 53.038 56.8594ZM79.5749 57.857C79.0761 58.4057 78.3778 58.8546 77.9787 58.8546C77.5797 58.8546 77.8789 58.3558 78.677 57.6575C80.3231 56.2608 80.9217 56.4105 79.5749 57.857ZM75.8338 60.401C75.8338 60.7002 75.6343 60.7501 75.335 60.6005C75.0856 60.4508 74.8362 60.0518 74.8362 59.8024C74.8362 59.5031 75.0856 59.4532 75.335 59.6029C75.6343 59.7525 75.8338 60.1515 75.8338 60.401ZM45.2565 132.28C46.2541 133.078 51.392 134.076 57.4775 134.724C67.0547 135.722 82.5677 134.225 86.1592 131.881C87.5559 130.983 87.8053 130.983 87.8053 131.881C87.8053 133.427 89.3017 134.175 92.3444 134.175C95.3872 134.175 98.3302 135.073 99.0285 136.171C99.6271 137.168 97.2827 138.715 96.1354 138.066C94.5392 137.218 90.7981 137.468 89.3516 138.565C88.3539 139.313 88.0048 140.012 87.905 141.708C87.8551 142.905 87.4062 146.945 86.9573 150.636C86.5084 154.328 86.1093 158.617 86.1093 160.114C86.0594 162.757 86.1093 162.857 87.4062 163.007C89.2518 163.206 91.5463 162.059 94.5891 159.366C96.4846 157.719 97.2827 157.32 97.7316 157.769C99.5273 159.565 96.5345 162.807 90.2993 165.8C87.905 166.997 85.4609 168.045 84.9122 168.195C84.2138 168.394 83.6652 169.242 83.1663 170.988C82.7673 172.335 82.069 174.13 81.62 175.028C80.0238 178.071 74.9858 179.567 66.1568 179.567C56.829 179.567 51.8409 178.171 49.8456 174.928C47.8504 171.686 45.1069 160.962 43.7102 150.886C42.962 145.399 42.3135 131.981 42.7624 131.482C43.0617 131.232 44.4085 131.632 45.2565 132.28ZM95.1877 139.912C95.2874 140.012 94.9881 140.81 94.5392 141.658C93.4418 143.803 93.9406 150.487 95.3872 152.981C96.3848 154.627 96.3848 154.677 95.487 155.774C93.1425 158.518 88.3041 161.76 87.5559 161.061C87.1568 160.662 89.4015 147.394 90.0998 145.997C90.5986 145 90.6485 144.301 90.2993 143.653C89.3516 141.857 89.7007 140.66 91.4466 139.912C92.7934 139.313 94.5392 139.313 95.1877 139.912ZM105.563 162.358C107.01 162.807 108.306 163.456 108.456 163.955C108.656 164.404 108.955 166.898 109.105 169.442L109.404 174.081H107.708C106.76 174.081 103.568 173.881 100.525 173.582C97.5321 173.332 92.8433 172.983 90.1497 172.833C85.5606 172.484 85.2613 172.434 85.411 171.487C85.5107 170.888 85.9098 170.29 86.3089 170.09C86.7079 169.89 88.8029 168.893 90.8979 167.845C92.9929 166.848 96.0357 164.902 97.6319 163.605C100.774 160.962 100.675 160.962 105.563 162.358ZM117.335 165.152C119.081 165.7 121.675 166.848 123.121 167.646C125.964 169.242 135.392 176.026 135.093 176.325C134.943 176.475 120.777 175.427 114.641 174.829L111.249 174.48V172.833C111.249 171.985 111.1 169.491 110.9 167.347L110.601 163.456L112.397 163.805C113.394 164.004 115.589 164.603 117.335 165.152ZM48.3991 176.225C50.095 179.867 57.677 181.862 68.1022 181.413C71.6438 181.214 75.2352 180.914 76.0832 180.765L77.5298 180.415L75.5844 182.71L73.5891 185.005L67.8528 185.054C57.9763 185.054 49.696 183.708 44.3088 181.214C41.5653 179.967 40.418 179.867 41.1662 181.064C41.7648 182.012 46.4537 184.107 50.2946 185.104C53.0879 185.853 56.5796 186.202 63.3136 186.451L72.4419 186.8L72.5915 189.045C72.6913 190.292 72.8409 191.739 72.9407 192.287C73.0903 193.235 72.8409 193.285 64.3611 193.135C50.1449 192.886 37.9738 190.741 30.5415 187.249C26.4013 185.254 25.0046 183.658 25.8526 181.812C26.4512 180.515 29.5438 178.52 32.9358 177.273C36.0284 176.176 43.2613 174.679 45.6556 174.629C47.4513 174.579 47.7506 174.779 48.3991 176.225ZM90.6485 175.527C91.1972 175.826 90.449 176.176 88.0048 176.724C86.1093 177.173 84.0642 177.672 83.4157 177.871L82.2685 178.221L83.1663 176.375L84.0642 174.529L86.9573 174.779C88.5535 174.928 90.2494 175.278 90.6485 175.527ZM101.672 179.567C109.903 183.109 107.957 190.043 97.3824 194.282C92.8432 196.178 85.3113 196.577 81.0713 195.23C77.3801 194.083 74.3374 191.339 74.3374 189.195C74.3374 187.499 76.5321 184.206 78.677 182.71C84.9621 178.221 95.3373 176.824 101.672 179.567ZM113.893 183.857C119.829 185.404 123.271 188.047 123.371 191.24C123.52 196.178 113.444 200.617 103.817 199.869C100.026 199.57 94.7886 198.173 94.7886 197.525C94.7886 197.325 95.5368 196.976 96.4347 196.826C100.475 196.028 107.209 191.539 108.007 189.045C108.157 188.496 108.855 188.047 109.653 187.948C111.499 187.748 111.848 186.052 110.052 186.052C108.955 186.052 108.755 185.853 108.755 184.556C108.755 182.76 109.404 182.66 113.893 183.857Z" fill="#4E402D"/>
<path d="M91.6464 181.413C90.8981 182.112 91.3471 182.61 92.644 182.461C94.34 182.261 94.7889 181.064 93.1927 181.064C92.4943 181.064 91.796 181.214 91.6464 181.413Z" fill="#4E402D"/>
<path d="M83.4658 183.409C83.1167 183.508 82.8174 183.957 82.8174 184.356C82.8174 185.254 84.5133 185.254 85.2616 184.406C86.1096 183.309 85.062 182.71 83.4658 183.409Z" fill="#4E402D"/>
<path d="M99.0285 184.057C98.6295 184.656 99.8765 185.204 101.074 184.955C101.572 184.905 102.021 184.506 102.171 184.157C102.42 183.409 99.4775 183.309 99.0285 184.057Z" fill="#4E402D"/>
<path d="M80.1735 188.896C79.4253 189.594 79.8742 190.043 81.3207 190.043C82.3184 190.043 82.8172 189.794 82.8172 189.295C82.8172 188.547 80.8219 188.247 80.1735 188.896Z" fill="#4E402D"/>
<path d="M95.7861 189.344C95.7861 189.843 96.1353 190.043 96.8835 189.943C98.4797 189.693 98.6294 188.546 97.083 188.546C96.2351 188.546 95.7861 188.796 95.7861 189.344Z" fill="#4E402D"/>
<path d="M88.5534 191.24C87.6056 191.938 87.6056 191.988 88.4536 192.287C89.551 192.736 90.9477 192.187 90.6983 191.439C90.399 190.541 89.6009 190.441 88.5534 191.24Z" fill="#4E402D"/>
<path d="M115.739 189.993C115.739 190.542 117.235 190.941 118.133 190.692C119.28 190.293 118.732 189.544 117.235 189.544C116.437 189.544 115.739 189.744 115.739 189.993Z" fill="#4E402D"/>
<path d="M112.297 193.485C111.449 194.034 111.998 195.031 113.195 195.031C114.442 195.031 114.841 194.483 114.192 193.684C113.544 192.936 113.245 192.886 112.297 193.485Z" fill="#4E402D"/>
<path d="M104.116 195.33C103.568 195.929 104.266 196.527 105.563 196.527C106.361 196.527 106.76 196.278 106.66 195.879C106.411 195.23 104.665 194.781 104.116 195.33Z" fill="#4E402D"/>
<path d="M150.157 29.1255C150.157 31.2704 154.247 36.4082 155.943 36.4082C156.99 36.4082 156.791 35.7099 155.394 34.413C154.696 33.7645 153.449 32.1683 152.601 30.8215C151.055 28.4272 150.157 27.8286 150.157 29.1255Z" fill="#4E402D"/>
<path d="M156.392 32.3682C156.093 32.9169 157.989 35.6603 160.882 38.8029C162.328 40.4489 164.573 41.8955 165.62 41.8955C166.518 41.8955 166.169 40.4988 165.122 40.1497C164.623 40 162.478 38.0546 160.433 35.8599C158.338 33.6152 156.592 32.0689 156.392 32.3682Z" fill="#4E402D"/>
<path d="M116.736 42.0952C116.736 42.7935 119.53 43.7413 120.078 43.1926C120.228 43.0429 120.228 42.594 120.078 42.1451C119.679 41.1474 116.736 41.0976 116.736 42.0952Z" fill="#4E402D"/>
<path d="M110.002 51.7218C108.805 52.0211 107.758 52.8192 107.758 53.3679C107.758 53.6173 109.055 53.7669 110.651 53.717C113.145 53.6173 113.843 53.8168 116.487 55.4629C119.779 57.508 123.171 58.2562 125.366 57.4083C127.561 56.5603 126.912 55.8619 123.869 55.8619C121.425 55.8619 120.577 55.5626 117.684 53.8667C114.392 51.8714 111.948 51.1731 110.002 51.7218Z" fill="#4E402D"/>
<path d="M164.722 78.1088C164.173 82.0993 163.226 84.5435 160.632 88.6338C160.233 89.2324 160.083 89.8808 160.233 90.0305C160.981 90.7787 162.827 88.7335 164.473 85.3915C165.969 82.3986 166.318 81.1017 166.518 77.8095C166.717 74.5672 166.618 73.819 166.019 73.819C165.52 73.819 165.171 74.9663 164.722 78.1088Z" fill="#4E402D"/>
<path d="M156.691 86.7382C154.546 89.8309 153.399 90.6788 152.95 89.4817C152.701 88.8332 152.401 88.8332 151.005 89.7311C148.86 91.028 144.071 92.275 141.078 92.275C139.283 92.275 138.684 92.4746 138.684 93.0233C138.684 93.6218 139.333 93.7715 141.477 93.7715C144.371 93.7715 150.057 92.5245 150.905 91.7263C151.803 90.8285 152.302 91.2774 151.404 92.275C149.907 93.971 151.753 94.1207 153.898 92.4746C155.893 90.9781 159.634 85.7905 159.634 84.5933C159.634 83.0969 158.686 83.7952 156.691 86.7382Z" fill="#4E402D"/>
<path d="M173.402 107.839C173.302 108.188 173.053 109.435 172.953 110.582C172.803 111.779 172.005 114.173 171.207 115.969C169.611 119.311 169.91 120.957 171.656 118.663C173.95 115.72 175.696 107.888 174.25 107.39C173.901 107.24 173.502 107.439 173.402 107.839Z" fill="#4E402D"/>
<path d="M168.214 117.017C167.366 118.663 165.919 121.057 164.922 122.454C162.927 125.197 162.777 125.696 163.874 125.696C164.772 125.696 169.361 119.262 170.159 116.867C170.558 115.67 170.558 114.972 170.209 114.623C169.86 114.273 169.212 115.022 168.214 117.017Z" fill="#4E402D"/>
<path d="M161.23 119.809C160.432 121.007 158.587 123.151 157.14 124.598C155.195 126.593 154.646 127.391 155.095 127.84C156.093 128.838 163.625 120.608 163.625 118.513C163.625 117.166 162.727 117.665 161.23 119.809Z" fill="#4E402D"/>
<path d="M13.0139 21.2644C13.1923 21.4976 13.4049 21.8131 13.6518 22.2109C13.8987 22.6087 14.1388 23.0134 14.372 23.4249C14.6189 23.8364 14.8246 24.2068 14.9892 24.536L13.7752 25.0916C13.5969 24.7212 13.398 24.344 13.1785 23.9599C12.9728 23.5621 12.7533 23.178 12.5201 22.8076C12.3006 22.4236 12.0743 22.0738 11.8411 21.7583L13.0139 21.2644ZM15.6682 20.2151C15.8603 20.4483 16.0798 20.7569 16.3267 21.141C16.5873 21.5251 16.8411 21.9229 17.088 22.3344C17.3349 22.7459 17.5407 23.1094 17.7053 23.4249L16.5119 24.0011C16.3335 23.6444 16.1346 23.274 15.9152 22.8899C15.6957 22.5059 15.4625 22.1286 15.2156 21.7583C14.9824 21.3879 14.7492 21.0518 14.516 20.75L15.6682 20.2151ZM7.31437 19.5772C7.27322 19.9201 7.23206 20.2631 7.19091 20.606C7.16348 20.9489 7.1429 21.2987 7.12918 21.6554C7.11547 22.2315 7.08803 22.9448 7.04688 23.7953C7.01944 24.6458 6.99201 25.5511 6.96457 26.5113C6.95086 27.4578 6.93028 28.4043 6.90285 29.3508C6.88913 30.2973 6.88227 31.1478 6.88227 31.9023C6.88227 32.6567 7.0263 33.2603 7.31437 33.7129C7.60243 34.1519 8.00024 34.4743 8.50778 34.68C9.01532 34.8721 9.59831 34.9681 10.2567 34.9681C11.1895 34.9681 12.0331 34.8515 12.7876 34.6183C13.5421 34.3714 14.2142 34.049 14.804 33.6512C15.3939 33.2397 15.9152 32.7802 16.3678 32.2726C16.8342 31.7651 17.2526 31.2438 17.623 30.7088L18.7958 32.108C18.4392 32.5881 18.0002 33.0957 17.4789 33.6306C16.9714 34.1656 16.3678 34.6594 15.6682 35.1121C14.9687 35.5648 14.1662 35.9352 13.2608 36.2232C12.3555 36.5113 11.3404 36.6553 10.2156 36.6553C9.22794 36.6553 8.35689 36.5044 7.60243 36.2027C6.84798 35.9009 6.25813 35.4139 5.83289 34.7418C5.40765 34.0696 5.19503 33.178 5.19503 32.0669C5.19503 31.4496 5.20189 30.7706 5.21561 30.0298C5.22933 29.2754 5.2499 28.5004 5.27734 27.7047C5.30477 26.9091 5.32535 26.1341 5.33907 25.3797C5.3665 24.6115 5.38708 23.905 5.40079 23.2603C5.41451 22.6156 5.42137 22.0806 5.42137 21.6554C5.42137 21.2576 5.40765 20.8872 5.38022 20.5443C5.35278 20.1876 5.30477 19.8584 5.23619 19.5566L7.31437 19.5772ZM6.82054 48.7953C6.77939 48.9188 6.73824 49.0559 6.69709 49.2068C6.65593 49.3577 6.61478 49.4949 6.57363 49.6183C6.51876 49.8927 6.45703 50.2356 6.38845 50.6471C6.31986 51.0587 6.25813 51.4976 6.20326 51.964C6.14839 52.4304 6.10724 52.8831 6.0798 53.322C6.05237 53.761 6.04551 54.1451 6.05923 54.4743C6.47075 53.5004 7.04002 52.6705 7.76704 51.9846C8.49406 51.285 9.31024 50.75 10.2156 50.3797C11.1347 49.9956 12.0674 49.8035 13.0139 49.8035C14.1525 49.8035 15.1058 50.0093 15.874 50.4208C16.6422 50.8323 17.2183 51.3879 17.6024 52.0875C18.0002 52.7733 18.1991 53.5415 18.1991 54.392C18.1991 55.311 18.0071 56.1615 17.623 56.9434C17.2389 57.7253 16.6559 58.3494 15.874 58.8158C15.0921 59.2685 14.0839 59.4948 12.8493 59.4948C12.1909 59.4948 11.553 59.3782 10.9358 59.145C10.3322 58.9119 9.77663 58.5689 9.26909 58.1162C8.77527 57.6636 8.36375 57.108 8.03453 56.4496L8.89872 55.2562C9.29653 56.0929 9.81779 56.7582 10.4625 57.2521C11.1209 57.7459 11.9165 57.9928 12.8493 57.9928C13.7272 57.9928 14.4474 57.8419 15.0098 57.5401C15.5859 57.2246 16.0112 56.7994 16.2855 56.2644C16.5599 55.7294 16.697 55.119 16.697 54.4331C16.697 53.8296 16.5736 53.2809 16.3267 52.787C16.0798 52.2932 15.682 51.9023 15.1333 51.6142C14.5846 51.3124 13.8644 51.1615 12.9728 51.1615C12.0674 51.1615 11.2444 51.3193 10.5037 51.6348C9.76292 51.9366 9.11134 52.3481 8.54893 52.8694C8.00024 53.3769 7.54756 53.9393 7.19091 54.5566C6.83426 55.1739 6.59421 55.7912 6.47075 56.4084C6.44331 56.5456 6.41588 56.7034 6.38845 56.8817C6.36101 57.06 6.35415 57.2452 6.36787 57.4372C6.36787 57.5607 6.38159 57.7322 6.40902 57.9516C6.43646 58.1574 6.46389 58.37 6.49133 58.5895C6.53248 58.7953 6.56677 58.9667 6.59421 59.1039L5.21561 59.3097C5.051 58.7884 4.90697 58.1368 4.78351 57.3549C4.67377 56.5593 4.61891 55.75 4.61891 54.927C4.61891 54.4331 4.63948 53.9187 4.68063 53.3838C4.72179 52.8351 4.76294 52.3138 4.80409 51.82C4.85896 51.3124 4.90697 50.8598 4.94812 50.462C5.00299 50.0504 5.051 49.7281 5.09215 49.4949C5.10587 49.344 5.11273 49.1931 5.11273 49.0422C5.11273 48.8913 5.10587 48.761 5.09215 48.6513L6.82054 48.7953ZM12.7876 47.8076C12.8699 48.1917 12.9522 48.7061 13.0345 49.3508C13.1168 49.9818 13.1854 50.6883 13.2403 51.4702C13.3089 52.2521 13.3431 53.0477 13.3431 53.857C13.3431 55.0504 13.2403 56.1684 13.0345 57.2109C12.8287 58.2534 12.4652 59.1999 11.944 60.0504C11.4364 60.8872 10.73 61.6005 9.82465 62.1903L8.42547 61.3261C9.09762 60.942 9.66004 60.4893 10.1127 59.9681C10.5654 59.4468 10.922 58.8638 11.1827 58.2191C11.4433 57.5744 11.6285 56.8817 11.7382 56.1409C11.848 55.3865 11.9028 54.5977 11.9028 53.7747C11.9028 52.5676 11.848 51.5525 11.7382 50.7294C11.6422 49.8927 11.553 49.248 11.4707 48.7953C11.4296 48.617 11.3816 48.4524 11.3267 48.3015C11.2718 48.1369 11.2238 47.986 11.1827 47.8488L12.7876 47.8076ZM15.4008 78.6101C15.4008 78.034 15.2499 77.5264 14.9481 77.0875C14.66 76.6348 14.2485 76.285 13.7135 76.0381C13.1923 75.7775 12.5818 75.6471 11.8823 75.6471C11.0866 75.6471 10.339 75.7089 9.63946 75.8323C8.93988 75.9558 8.30202 76.0998 7.72589 76.2644C7.16348 76.429 6.67651 76.5662 6.26499 76.6759C5.94949 76.772 5.64085 76.8748 5.33907 76.9846C5.051 77.0943 4.78351 77.2041 4.5366 77.3138L4.00162 75.4002C4.28969 75.3728 4.59833 75.3316 4.92755 75.2768C5.27048 75.2219 5.59284 75.1602 5.89462 75.0916C6.38845 74.9818 6.95772 74.8515 7.60243 74.7006C8.26087 74.5497 8.96731 74.4126 9.72177 74.2891C10.4899 74.1657 11.265 74.1039 12.0469 74.1039C13.0208 74.1039 13.8918 74.2823 14.66 74.6389C15.4282 74.9956 16.0318 75.5168 16.4707 76.2027C16.9234 76.8748 17.1497 77.6979 17.1497 78.6718C17.1497 79.7966 16.9165 80.798 16.4501 81.6759C15.9837 82.5401 15.3253 83.2946 14.4748 83.9393C13.6381 84.5703 12.6504 85.0984 11.5119 85.5236C10.3733 85.9489 9.13878 86.2575 7.80819 86.4496L6.88227 84.8858C8.11683 84.7349 9.25537 84.4948 10.2979 84.1656C11.3404 83.8227 12.2389 83.3975 12.9934 82.8899C13.7615 82.3824 14.3514 81.7719 14.7629 81.0586C15.1881 80.3453 15.4008 79.5292 15.4008 78.6101ZM6.75881 69.3509C7.32123 69.4743 7.99338 69.5909 8.77527 69.7007C9.57087 69.8104 10.3871 69.9133 11.2238 70.0093C12.0743 70.0916 12.8699 70.1602 13.6106 70.2151C14.3651 70.2699 14.9961 70.2974 15.5036 70.2974L15.2567 71.8817C14.6806 71.8406 14.0084 71.7926 13.2403 71.7377C12.4858 71.6691 11.6971 71.5937 10.874 71.5114C10.0647 71.4153 9.27595 71.3193 8.50778 71.2233C7.75332 71.1135 7.08117 71.0107 6.49133 70.9146L6.75881 69.3509ZM9.96868 96.5731C10.5311 96.6554 11.1827 96.724 11.9234 96.7788C12.6779 96.82 13.4529 96.8406 14.2485 96.8406C15.0578 96.8269 15.826 96.7994 16.553 96.7583C17.2938 96.7034 17.9179 96.6348 18.4254 96.5525V98.2192C17.8767 98.274 17.232 98.322 16.4913 98.3632C15.7643 98.3906 15.003 98.4043 14.2073 98.4043C13.4255 98.4043 12.6641 98.3906 11.9234 98.3632C11.1827 98.322 10.5311 98.274 9.96868 98.2192V96.5731ZM10.7711 104.948C10.6751 105.318 10.5997 105.654 10.5448 105.956C10.4899 106.258 10.4625 106.552 10.4625 106.841C10.4625 107.074 10.5105 107.307 10.6065 107.54C10.7163 107.76 10.8946 107.958 11.1415 108.137C11.4021 108.301 11.7588 108.439 12.2115 108.548C12.6641 108.644 13.2403 108.692 13.9399 108.692C14.8726 108.692 15.7505 108.651 16.5736 108.569C17.3966 108.473 18.2197 108.336 19.0427 108.157L19.0839 109.886C18.4392 110.023 17.6847 110.133 16.8205 110.215C15.97 110.284 15.0098 110.318 13.9399 110.318C12.2115 110.318 10.9426 110.044 10.1333 109.495C9.33768 108.946 8.93988 108.192 8.93988 107.231C8.93988 106.889 8.96731 106.525 9.02218 106.141C9.09077 105.743 9.17993 105.297 9.28967 104.804L10.7711 104.948ZM6.03865 94.9887C6.01122 95.0985 5.97007 95.2425 5.9152 95.4208C5.87404 95.5854 5.82603 95.7569 5.77116 95.9352C5.73001 96.0998 5.69572 96.2439 5.66828 96.3673C5.5997 96.7514 5.51739 97.1972 5.42137 97.7048C5.32535 98.1986 5.22933 98.7336 5.13331 99.3097C5.051 99.8721 4.9687 100.448 4.88639 101.038C4.81781 101.614 4.75608 102.177 4.70121 102.725C4.66006 103.274 4.63948 103.782 4.63948 104.248C4.63948 104.755 4.6532 105.236 4.68063 105.688C4.72179 106.141 4.7698 106.621 4.82467 107.129C4.94812 106.813 5.07844 106.477 5.21561 106.12C5.35278 105.764 5.48996 105.414 5.62713 105.071C5.77802 104.714 5.90834 104.399 6.01808 104.124L6.88227 104.783C6.70394 105.277 6.5119 105.819 6.30614 106.408C6.10038 106.998 5.9152 107.568 5.75059 108.116C5.5997 108.651 5.48996 109.076 5.42137 109.392C5.39394 109.543 5.3665 109.707 5.33907 109.886C5.31163 110.064 5.30477 110.208 5.31849 110.318C5.33221 110.428 5.33907 110.544 5.33907 110.668C5.35278 110.805 5.3665 110.928 5.38022 111.038L3.89874 111.141C3.69298 110.414 3.51466 109.481 3.36377 108.343C3.21288 107.19 3.13743 105.921 3.13743 104.536C3.13743 103.782 3.17172 103.013 3.24031 102.231C3.3089 101.436 3.39806 100.668 3.5078 99.927C3.61754 99.1725 3.72042 98.4867 3.81644 97.8694C3.92618 97.2384 4.00848 96.7103 4.06335 96.285C4.1045 96.0381 4.1388 95.7912 4.16623 95.5443C4.19367 95.2836 4.20738 95.0436 4.20738 94.8241L6.03865 94.9887ZM13.0139 121.264C13.1923 121.498 13.4049 121.813 13.6518 122.211C13.8987 122.609 14.1388 123.013 14.372 123.425C14.6189 123.836 14.8246 124.207 14.9892 124.536L13.7752 125.092C13.5969 124.721 13.398 124.344 13.1785 123.96C12.9728 123.562 12.7533 123.178 12.5201 122.808C12.3006 122.424 12.0743 122.074 11.8411 121.758L13.0139 121.264ZM15.6682 120.215C15.8603 120.448 16.0798 120.757 16.3267 121.141C16.5873 121.525 16.8411 121.923 17.088 122.334C17.3349 122.746 17.5407 123.109 17.7053 123.425L16.5119 124.001C16.3335 123.644 16.1346 123.274 15.9152 122.89C15.6957 122.506 15.4625 122.129 15.2156 121.758C14.9824 121.388 14.7492 121.052 14.516 120.75L15.6682 120.215ZM7.31437 119.577C7.27322 119.92 7.23206 120.263 7.19091 120.606C7.16348 120.949 7.1429 121.299 7.12918 121.655C7.11547 122.232 7.08803 122.945 7.04688 123.795C7.01944 124.646 6.99201 125.551 6.96457 126.511C6.95086 127.458 6.93028 128.404 6.90285 129.351C6.88913 130.297 6.88227 131.148 6.88227 131.902C6.88227 132.657 7.0263 133.26 7.31437 133.713C7.60243 134.152 8.00024 134.474 8.50778 134.68C9.01532 134.872 9.59831 134.968 10.2567 134.968C11.1895 134.968 12.0331 134.851 12.7876 134.618C13.5421 134.371 14.2142 134.049 14.804 133.651C15.3939 133.24 15.9152 132.78 16.3678 132.273C16.8342 131.765 17.2526 131.244 17.623 130.709L18.7958 132.108C18.4392 132.588 18.0002 133.096 17.4789 133.631C16.9714 134.166 16.3678 134.659 15.6682 135.112C14.9687 135.565 14.1662 135.935 13.2608 136.223C12.3555 136.511 11.3404 136.655 10.2156 136.655C9.22794 136.655 8.35689 136.504 7.60243 136.203C6.84798 135.901 6.25813 135.414 5.83289 134.742C5.40765 134.07 5.19503 133.178 5.19503 132.067C5.19503 131.45 5.20189 130.771 5.21561 130.03C5.22933 129.275 5.2499 128.5 5.27734 127.705C5.30477 126.909 5.32535 126.134 5.33907 125.38C5.3665 124.611 5.38708 123.905 5.40079 123.26C5.41451 122.616 5.42137 122.081 5.42137 121.655C5.42137 121.258 5.40765 120.887 5.38022 120.544C5.35278 120.188 5.30477 119.858 5.23619 119.557L7.31437 119.577Z" fill="#4E402D"/>
<path d="M219.742 44.2686C219.715 44.5018 219.687 44.783 219.66 45.1122C219.646 45.4277 219.633 45.7089 219.619 45.9558C219.564 48.0546 219.379 49.8927 219.063 51.4702C218.748 53.034 218.309 54.4057 217.746 55.5854C217.198 56.7514 216.526 57.7733 215.73 58.6512C214.948 59.5291 214.05 60.3179 213.034 61.0175L211.532 59.8035C211.862 59.6252 212.218 59.3988 212.602 59.1245C212.986 58.8501 213.336 58.5689 213.652 58.2809C214.296 57.7047 214.873 57.0394 215.38 56.285C215.901 55.5305 216.347 54.6663 216.718 53.6924C217.102 52.7185 217.397 51.6005 217.602 50.3385C217.822 49.0628 217.938 47.6087 217.952 45.9764C217.952 45.8255 217.945 45.6472 217.932 45.4414C217.918 45.2356 217.897 45.0299 217.87 44.8241C217.856 44.6184 217.836 44.4332 217.808 44.2686H219.742ZM226.882 48.5484C226.855 48.7267 226.827 48.905 226.8 49.0834C226.786 49.2617 226.779 49.4194 226.779 49.5566C226.766 49.9407 226.738 50.4688 226.697 51.141C226.67 51.8131 226.622 52.547 226.553 53.3426C226.498 54.1245 226.423 54.9132 226.327 55.7088C226.244 56.5045 226.135 57.2383 225.997 57.9105C225.86 58.5689 225.702 59.097 225.524 59.4948C225.318 59.9201 225.037 60.2356 224.68 60.4413C224.338 60.6471 223.885 60.75 223.322 60.75C222.801 60.75 222.253 60.7294 221.676 60.6883C221.1 60.6608 220.545 60.6334 220.01 60.6059L219.804 58.8981C220.366 58.9667 220.908 59.0216 221.429 59.0627C221.964 59.1039 222.445 59.1245 222.87 59.1245C223.172 59.1245 223.418 59.0765 223.611 58.9804C223.803 58.8844 223.953 58.7061 224.063 58.4455C224.228 58.13 224.365 57.6979 224.475 57.1492C224.584 56.6005 224.68 55.9832 224.763 55.2973C224.845 54.6115 224.914 53.9187 224.969 53.2191C225.023 52.5196 225.058 51.8543 225.071 51.2233C225.099 50.5923 225.113 50.0573 225.113 49.6183H214.269C213.857 49.6183 213.453 49.6252 213.055 49.6389C212.657 49.6389 212.273 49.6595 211.903 49.7006V47.9517C212.259 47.9928 212.644 48.0271 213.055 48.0546C213.467 48.0683 213.864 48.0751 214.248 48.0751H224.413C224.687 48.0751 224.927 48.0683 225.133 48.0546C225.353 48.0271 225.552 47.9997 225.73 47.9723L226.882 48.5484ZM227.006 71.7788C226.937 71.9297 226.875 72.0875 226.82 72.2521C226.779 72.4167 226.738 72.6019 226.697 72.8076C226.587 73.3563 226.443 73.9599 226.265 74.6183C226.087 75.2631 225.867 75.9352 225.606 76.6348C225.36 77.3207 225.065 77.9928 224.722 78.6512C224.392 79.296 224.029 79.8789 223.631 80.4002C223 81.1958 222.301 81.9434 221.532 82.643C220.764 83.3289 219.886 83.9461 218.899 84.4948C217.911 85.0435 216.786 85.5168 215.524 85.9146L214.125 84.3714C215.469 84.0284 216.628 83.6169 217.602 83.1368C218.59 82.643 219.454 82.0806 220.195 81.4496C220.936 80.8186 221.587 80.1396 222.15 79.4126C222.643 78.7953 223.069 78.0888 223.425 77.2932C223.796 76.4976 224.098 75.702 224.331 74.9064C224.578 74.0971 224.749 73.3632 224.845 72.7048C224.653 72.7048 224.29 72.7048 223.755 72.7048C223.22 72.7048 222.589 72.7048 221.862 72.7048C221.135 72.7048 220.373 72.7048 219.578 72.7048C218.796 72.7048 218.041 72.7048 217.314 72.7048C216.587 72.7048 215.956 72.7048 215.421 72.7048C214.886 72.7048 214.523 72.7048 214.331 72.7048C213.919 72.7048 213.542 72.7116 213.199 72.7253C212.856 72.7391 212.547 72.7528 212.273 72.7665V70.9558C212.465 70.9695 212.678 70.9901 212.911 71.0175C213.144 71.045 213.384 71.0655 213.631 71.0793C213.878 71.0793 214.111 71.0793 214.331 71.0793C214.495 71.0793 214.79 71.0793 215.216 71.0793C215.641 71.0793 216.141 71.0793 216.718 71.0793C217.307 71.0793 217.932 71.0793 218.59 71.0793C219.262 71.0793 219.921 71.0793 220.565 71.0793C221.224 71.0793 221.834 71.0793 222.397 71.0793C222.973 71.0793 223.46 71.0793 223.857 71.0793C224.255 71.0793 224.523 71.0793 224.66 71.0793C224.811 71.0793 224.982 71.0793 225.174 71.0793C225.366 71.0655 225.558 71.0312 225.75 70.9764L227.006 71.7788ZM213.487 99.8241C213.707 99.8515 213.954 99.8721 214.228 99.8858C214.516 99.8995 214.742 99.9064 214.907 99.9064H224.372C224.632 99.9064 224.886 99.8995 225.133 99.8858C225.38 99.8721 225.613 99.8515 225.833 99.8241V101.47C225.613 101.443 225.373 101.429 225.113 101.429C224.852 101.429 224.605 101.429 224.372 101.429H214.907C214.742 101.429 214.516 101.429 214.228 101.429C213.954 101.429 213.707 101.443 213.487 101.47V99.8241ZM218.693 109.845V100.75H220.36V109.845H218.693ZM212.479 108.878C212.726 108.905 212.973 108.932 213.22 108.96C213.48 108.974 213.727 108.98 213.96 108.98H225.339C225.586 108.98 225.826 108.974 226.059 108.96C226.292 108.932 226.512 108.905 226.718 108.878V110.606C226.512 110.579 226.272 110.558 225.997 110.544C225.723 110.544 225.504 110.544 225.339 110.544H213.96C213.741 110.544 213.501 110.544 213.24 110.544C212.993 110.558 212.74 110.579 212.479 110.606V108.878Z" fill="#4E402D"/>
<path d="M10.9253 231.339H5.5905V227.721C7.04404 227.721 8.20378 227.597 9.06972 227.35C9.96659 227.102 10.6779 226.7 11.2036 226.144C11.7294 225.556 12.1933 224.721 12.5953 223.639H16.0282V256.111H10.9253V231.339ZM26.9015 252.586C26.9015 250.266 27.2726 248.287 28.0148 246.648C28.757 244.978 30.0869 243.138 32.0043 241.127C33.8908 239.117 35.1897 237.401 35.901 235.978C36.6433 234.556 37.0144 233.071 37.0144 231.525C37.0144 230.133 36.7825 229.174 36.3186 228.649C35.8856 228.092 35.2361 227.814 34.3702 227.814C32.6074 227.814 31.726 228.881 31.726 231.015V234.494H26.9015V231.339C26.9015 228.711 27.5509 226.7 28.8498 225.309C30.1487 223.886 32.0352 223.175 34.5094 223.175C36.9835 223.175 38.87 223.886 40.1689 225.309C41.4678 226.7 42.1173 228.711 42.1173 231.339C42.1173 233.319 41.6379 235.251 40.6792 237.138C39.7514 239.024 38.1278 241.189 35.8083 243.633C34.2929 245.241 33.2723 246.555 32.7466 247.576C32.2208 248.565 31.9579 249.632 31.9579 250.777V251.472H41.6534V256.111H26.9015V252.586ZM62.2757 223.639H76.1926V228.278H67.3786V236.86H74.3834V241.499H67.3786V251.472H76.1926V256.111H62.2757V223.639ZM83.7672 223.639H90.1689L95.1326 243.076H95.2254V223.639H99.7716V256.111H94.5296L88.4061 232.406H88.3134V256.111H83.7672V223.639ZM120.272 223.639H127.787C130.323 223.639 132.225 224.319 133.493 225.68C134.761 227.04 135.395 229.035 135.395 231.664V234.865C135.395 237.494 134.761 239.488 133.493 240.849C132.225 242.21 130.323 242.89 127.787 242.89H125.375V256.111H120.272V223.639ZM127.787 238.251C128.622 238.251 129.24 238.019 129.643 237.555C130.076 237.092 130.292 236.303 130.292 235.19V231.339C130.292 230.226 130.076 229.437 129.643 228.973C129.24 228.509 128.622 228.278 127.787 228.278H125.375V238.251H127.787ZM150.228 256.575C147.753 256.575 145.867 255.879 144.568 254.488C143.269 253.065 142.62 251.039 142.62 248.411V223.639H147.723V248.782C147.723 249.895 147.939 250.699 148.372 251.194C148.836 251.689 149.485 251.936 150.32 251.936C151.155 251.936 151.789 251.689 152.222 251.194C152.686 250.699 152.918 249.895 152.918 248.782V223.639H157.835V248.411C157.835 251.039 157.186 253.065 155.887 254.488C154.588 255.879 152.702 256.575 150.228 256.575ZM166.109 223.639H172.511L177.474 243.076H177.567V223.639H182.113V256.111H176.871L170.748 232.406H170.655V256.111H166.109V223.639ZM194.534 228.278H189.2V223.639H204.972V228.278H199.637V256.111H194.534V228.278ZM219.276 256.575C216.771 256.575 214.854 255.864 213.524 254.441C212.194 253.019 211.529 251.008 211.529 248.411V231.339C211.529 228.741 212.194 226.731 213.524 225.309C214.854 223.886 216.771 223.175 219.276 223.175C221.781 223.175 223.699 223.886 225.029 225.309C226.359 226.731 227.023 228.741 227.023 231.339V248.411C227.023 251.008 226.359 253.019 225.029 254.441C223.699 255.864 221.781 256.575 219.276 256.575ZM219.276 251.936C221.039 251.936 221.921 250.869 221.921 248.735V231.015C221.921 228.881 221.039 227.814 219.276 227.814C217.514 227.814 216.632 228.881 216.632 231.015V248.735C216.632 250.869 217.514 251.936 219.276 251.936Z" fill="#4E402D"/>
<path d="M68.1604 277.873C67.4511 277.873 66.9079 277.671 66.5308 277.267C66.1627 276.863 65.9786 276.293 65.9786 275.556V270.493C65.9786 269.756 66.1627 269.186 66.5308 268.782C66.9079 268.378 67.4511 268.176 68.1604 268.176C68.8697 268.176 69.4084 268.378 69.7766 268.782C70.1537 269.186 70.3422 269.756 70.3422 270.493V271.489H68.9415V270.398C68.9415 269.815 68.6946 269.523 68.2008 269.523C67.707 269.523 67.4601 269.815 67.4601 270.398V275.664C67.4601 276.239 67.707 276.526 68.2008 276.526C68.6946 276.526 68.9415 276.239 68.9415 275.664V274.223H70.3422V275.556C70.3422 276.293 70.1537 276.863 69.7766 277.267C69.4084 277.671 68.8697 277.873 68.1604 277.873ZM73.7201 268.311H75.7269L77.2622 277.738H75.7807L75.5114 275.866V275.893H73.8279L73.5585 277.738H72.1848L73.7201 268.311ZM75.3363 274.614L74.6764 269.954H74.6494L74.003 274.614H75.3363ZM79.3278 268.311H83.2469V269.658H80.8092V272.284H82.7217V273.631H80.8092V277.738H79.3278V268.311ZM85.3042 268.311H89.3446V269.658H86.7856V272.149H88.8193V273.496H86.7856V276.391H89.3446V277.738H85.3042V268.311ZM87.459 266.129H89.0752L87.6341 267.678H86.5163L87.459 266.129ZM96.5962 277.873C96.0575 277.873 95.649 277.689 95.3706 277.321C95.0923 276.953 94.9531 276.418 94.9531 275.718V274.735C94.9531 274.241 95.0384 273.828 95.209 273.496C95.3796 273.164 95.6579 272.921 96.044 272.769V272.742C95.6939 272.598 95.4335 272.369 95.2629 272.055C95.1013 271.732 95.0205 271.319 95.0205 270.816V270.641C95.0205 269.877 95.2045 269.298 95.5726 268.903C95.9408 268.508 96.493 268.311 97.2292 268.311H98.9262V269.658H97.2561C97.0137 269.658 96.8252 269.729 96.6905 269.873C96.5648 270.017 96.5019 270.25 96.5019 270.573V271.152C96.5019 271.512 96.5738 271.767 96.7174 271.92C96.8701 272.073 97.0945 272.149 97.3908 272.149H97.9699V271.099H99.4245V272.149H99.842V273.496H99.4245V276.594C99.4245 276.863 99.4335 277.083 99.4514 277.253C99.4694 277.415 99.5143 277.577 99.5861 277.738H98.1046C98.0328 277.541 97.9879 277.294 97.9699 276.998H97.943C97.7814 277.294 97.5928 277.514 97.3774 277.657C97.1708 277.801 96.9105 277.873 96.5962 277.873ZM97.1484 276.526C97.6153 276.526 97.8891 276.243 97.9699 275.678V273.496H97.4043C97.0631 273.496 96.8162 273.59 96.6636 273.779C96.5109 273.958 96.4346 274.264 96.4346 274.695V275.651C96.4346 275.965 96.4974 276.189 96.6231 276.324C96.7488 276.459 96.9239 276.526 97.1484 276.526ZM105.514 268.311H107.696C108.432 268.311 108.984 268.508 109.352 268.903C109.72 269.298 109.905 269.877 109.905 270.641V271.57C109.905 272.333 109.72 272.912 109.352 273.307C108.984 273.702 108.432 273.9 107.696 273.9H106.995V277.738H105.514V268.311ZM107.696 272.553C107.938 272.553 108.118 272.486 108.235 272.351C108.36 272.216 108.423 271.987 108.423 271.664V270.546C108.423 270.223 108.36 269.994 108.235 269.86C108.118 269.725 107.938 269.658 107.696 269.658H106.995V272.553H107.696ZM112.727 268.311H114.734L116.269 277.738H114.788L114.518 275.866V275.893H112.835L112.566 277.738H111.192L112.727 268.311ZM114.343 274.614L113.683 269.954H113.657L113.01 274.614H114.343ZM120.221 277.873C119.503 277.873 118.96 277.671 118.592 277.267C118.224 276.854 118.04 276.266 118.04 275.503V274.964H119.44V275.61C119.44 276.221 119.696 276.526 120.208 276.526C120.459 276.526 120.648 276.454 120.774 276.311C120.908 276.158 120.976 275.916 120.976 275.583C120.976 275.188 120.886 274.843 120.706 274.546C120.527 274.241 120.194 273.877 119.71 273.455C119.099 272.917 118.673 272.432 118.43 272.001C118.188 271.561 118.066 271.067 118.066 270.519C118.066 269.774 118.255 269.2 118.632 268.796C119.009 268.383 119.557 268.176 120.275 268.176C120.985 268.176 121.519 268.383 121.878 268.796C122.246 269.2 122.43 269.783 122.43 270.546V270.937H121.029V270.452C121.029 270.129 120.967 269.895 120.841 269.752C120.715 269.599 120.531 269.523 120.289 269.523C119.795 269.523 119.548 269.824 119.548 270.425C119.548 270.766 119.638 271.085 119.817 271.381C120.006 271.678 120.343 272.037 120.827 272.459C121.447 272.998 121.873 273.487 122.107 273.927C122.34 274.367 122.457 274.883 122.457 275.476C122.457 276.248 122.264 276.84 121.878 277.253C121.501 277.666 120.949 277.873 120.221 277.873ZM125.811 269.658H124.263V268.311H128.842V269.658H127.293V277.738H125.811V269.658ZM130.906 268.311H134.946V269.658H132.387V272.149H134.421V273.496H132.387V276.391H134.946V277.738H130.906V268.311ZM137.145 268.311H138.627V276.391H141.064V277.738H137.145V268.311ZM143.122 268.311H147.162V269.658H144.603V272.149H146.637V273.496H144.603V276.391H147.162V277.738H143.122V268.311ZM149.361 268.311H151.556C152.32 268.311 152.876 268.49 153.226 268.849C153.577 269.2 153.752 269.743 153.752 270.479V271.058C153.752 272.037 153.428 272.656 152.782 272.917V272.944C153.141 273.051 153.393 273.271 153.536 273.604C153.689 273.936 153.765 274.38 153.765 274.937V276.594C153.765 276.863 153.774 277.083 153.792 277.253C153.81 277.415 153.855 277.577 153.927 277.738H152.418C152.365 277.586 152.329 277.442 152.311 277.307C152.293 277.173 152.284 276.93 152.284 276.58V274.856C152.284 274.425 152.212 274.124 152.068 273.954C151.934 273.783 151.696 273.698 151.354 273.698H150.843V277.738H149.361V268.311ZM151.381 272.351C151.678 272.351 151.898 272.275 152.041 272.122C152.194 271.97 152.27 271.714 152.27 271.354V270.627C152.27 270.286 152.207 270.039 152.082 269.886C151.965 269.734 151.776 269.658 151.516 269.658H150.843V272.351H151.381ZM156.14 268.311H157.621V277.738H156.14V268.311ZM157.015 266.129H158.631L157.19 267.678H156.072L157.015 266.129ZM161.222 268.311H163.229L164.764 277.738H163.283L163.014 275.866V275.893H161.33L161.061 277.738H159.687L161.222 268.311ZM162.839 274.614L162.179 269.954H162.152L161.505 274.614H162.839Z" fill="#4E402D"/>
</svg>
