<svg width="38" height="37" viewBox="0 0 38 37" fill="none" xmlns="http://www.w3.org/2000/svg">
<path d="M19.0041 31.3028C18.949 31.4389 18.9142 31.5283 18.8772 31.6168C17.8846 33.997 16.2153 35.6756 13.7559 36.5033C12.6526 36.8738 11.5211 36.9535 10.3891 36.5792C9.82912 36.394 9.39791 36.047 9.18485 35.5047C8.99448 35.0211 8.88425 34.5061 8.74622 34.0026C8.71612 33.8933 8.71751 33.7756 8.69991 33.6321C8.54011 33.6617 8.39977 33.7025 8.25758 33.7113C7.77449 33.7409 7.28492 33.809 6.80739 33.7715C5.96765 33.7062 5.42482 33.1754 5.04733 32.4644C4.21825 30.897 4.2039 29.2616 4.69625 27.6053C5.1886 25.949 6.12328 24.5543 7.43498 23.421C7.4813 23.3825 7.54661 23.3705 7.60312 23.3459L7.54105 23.2533C7.46046 23.244 7.38033 23.2325 7.29974 23.225C4.87086 22.9999 2.83522 22.0097 1.30212 20.0871C0.535572 19.1292 0.0714734 18.0301 0.00431347 16.7819C-0.0466355 15.8138 0.354472 15.0936 1.16965 14.5994C1.51703 14.3886 1.88572 14.2117 2.24468 14.0195C2.06775 13.6545 1.87414 13.2956 1.71666 12.9222C1.36558 12.0983 1.43088 11.3215 1.98762 10.5906C2.71063 9.6402 3.66569 9.02604 4.77823 8.65319C7.22517 7.83337 9.53732 8.16269 11.7179 9.51561C11.7758 9.55128 11.836 9.5837 11.9444 9.64576C11.9134 9.49477 11.8939 9.38778 11.8699 9.28171C11.3604 7.01633 11.5669 4.84452 12.7647 2.82324C13.447 1.67225 14.3511 0.738962 15.6137 0.205851C16.503 -0.170245 17.3066 -0.0257348 18.0245 0.596305C18.3672 0.893199 18.6803 1.22437 19.0365 1.56897C19.3052 1.29384 19.559 0.977033 19.8702 0.732015C20.1697 0.491055 20.5031 0.295507 20.8596 0.15166C21.6094 -0.140601 22.3088 0.105343 22.9531 0.493018C24.7979 1.59768 25.8058 3.279 26.237 5.34521C26.5149 6.66757 26.445 7.98297 26.1513 9.29329C26.1328 9.37573 26.116 9.45864 26.1008 9.54201C26.1008 9.55544 26.1082 9.57073 26.1226 9.62353C26.2111 9.56934 26.2907 9.51885 26.3713 9.47068C28.6872 8.09553 31.1086 7.78381 33.6501 8.75045C34.5592 9.09186 35.3565 9.67769 35.9539 10.4433C36.5375 11.1844 36.669 11.9825 36.2999 12.8518C36.1345 13.2404 35.9428 13.6184 35.758 14.0098C36.0738 14.1723 36.4064 14.3312 36.7255 14.5109C37.6056 15.0037 38.0872 15.736 37.9872 16.767C37.9485 17.2197 37.8596 17.6666 37.7223 18.0996C37.0863 20.0129 35.7593 21.3274 34.0169 22.2644C33.0076 22.8057 31.8963 23.1302 30.7543 23.2172C30.6816 23.2232 30.6093 23.2362 30.4792 23.2538C30.6385 23.3927 30.7617 23.4946 30.8766 23.6035C32.752 25.3853 33.7881 27.5275 33.6496 30.156C33.5991 31.1115 33.318 32.0054 32.7668 32.8021C32.3453 33.4111 31.7756 33.7821 31.0276 33.79C30.5445 33.7946 30.0609 33.7224 29.5779 33.6835C29.5098 33.6779 29.4426 33.6636 29.3463 33.6492C29.2967 33.9378 29.2536 34.2161 29.2004 34.4922C29.1706 34.659 29.1302 34.8238 29.0795 34.9855C28.7034 36.1383 27.9378 36.7177 26.671 36.8025C25.0036 36.9136 23.5214 36.4069 22.1745 35.4533C20.791 34.4723 19.7906 33.1837 19.1514 31.6149C19.1125 31.5251 19.0676 31.4385 19.0041 31.3028ZM19.8878 17.705C19.9573 17.6123 20.0268 17.522 20.0949 17.4294C21.4381 15.5716 22.7567 13.6976 24.1245 11.8611C25.0045 10.6828 25.5395 9.39194 25.6719 7.93388C25.8252 6.24608 25.5603 4.63748 24.6775 3.16784C24.0754 2.16831 23.2838 1.36888 22.1981 0.883935C21.5914 0.61298 21.0198 0.672729 20.5265 1.08403C20.0921 1.44623 19.7049 1.87142 19.3223 2.29059C19.0555 2.5847 18.9564 2.58841 18.691 2.29522C18.2991 1.86215 17.9073 1.4226 17.4659 1.04466C16.9782 0.627801 16.4066 0.603716 15.8152 0.865408C15.1815 1.14563 14.647 1.56017 14.1853 2.06271C13.0371 3.31744 12.4497 4.81071 12.3326 6.49943C12.1978 8.44476 12.6651 10.2048 13.8383 11.7852C14.974 13.3136 16.0685 14.8759 17.182 16.4224C17.496 16.8587 17.8137 17.2927 18.1282 17.7253C18.2454 17.6818 18.3362 17.6285 18.4325 17.6156C18.6539 17.5864 18.7063 17.472 18.7058 17.2561C18.7026 15.7902 18.7169 14.3238 18.716 12.856C18.7096 12.7472 18.664 12.6444 18.5877 12.5665C18.307 12.2886 18.2723 11.8857 18.5261 11.6129C18.5859 11.5469 18.6587 11.494 18.7399 11.4574C18.821 11.4207 18.9089 11.4012 18.9979 11.4001C19.0869 11.3989 19.1753 11.4161 19.2574 11.4505C19.3395 11.485 19.4136 11.536 19.4751 11.6003C19.7405 11.8718 19.7197 12.2696 19.4464 12.5526C19.3668 12.6382 19.3191 12.7486 19.3112 12.8653C19.3015 13.3359 19.3167 13.8064 19.3195 14.2775C19.3251 15.2881 19.326 16.2992 19.3367 17.3099C19.3367 17.3928 19.3783 17.5141 19.4395 17.5493C19.5733 17.6239 19.7308 17.6531 19.8878 17.705ZM7.2423 8.89311C7.01072 8.91302 6.65315 8.92414 6.30345 8.97787C4.95053 9.18676 3.73702 9.68328 2.77547 10.7032C2.20577 11.3076 1.99781 11.976 2.37529 12.7523C2.57029 13.1538 2.79215 13.542 3.01864 13.9278C3.20391 14.2437 3.15435 14.3766 2.82318 14.5341C2.3438 14.762 1.86117 14.9898 1.40911 15.2654C0.957059 15.541 0.70463 15.9602 0.692587 16.516C0.677182 17.0264 0.761023 17.535 0.939458 18.0134C1.66942 19.9444 3.0631 21.2181 4.94127 21.9851C6.19183 22.4946 7.4952 22.7457 8.83701 22.4529C9.54242 22.2987 10.2265 22.0467 10.9139 21.8133C12.9152 21.1329 14.9097 20.4326 16.9138 19.7601C17.1954 19.6674 17.1273 19.4859 17.1542 19.2969C17.1824 19.0996 17.0435 19.0857 16.9226 19.0449C15.5217 18.5648 14.121 18.0848 12.7207 17.6049C12.5753 17.5549 12.4599 17.5498 12.3136 17.6355C11.9954 17.8208 11.5618 17.6684 11.4044 17.3428C11.2469 17.0171 11.3909 16.6054 11.7147 16.459C12.0537 16.3057 12.4711 16.4558 12.6003 16.8032C12.6572 16.956 12.7503 17.0153 12.8898 17.0616C14.2953 17.5288 15.7003 17.9985 17.1046 18.4706C17.2246 18.5104 17.3432 18.5785 17.4414 18.4067C17.5317 18.2483 17.6489 18.1496 17.4877 17.9319C16.1987 16.1783 14.9324 14.4086 13.6517 12.649C13.2256 12.0631 12.8333 11.4387 12.3307 10.9246C10.9769 9.54155 9.28443 8.92692 7.2423 8.89311ZM20.4112 18.1237C20.7554 18.6253 20.5988 18.5706 21.1236 18.3965C22.4635 17.9528 23.8007 17.5021 25.1402 17.0574C25.269 17.0144 25.3639 16.9713 25.4181 16.8222C25.5571 16.447 25.9785 16.2978 26.337 16.4725C26.4146 16.5115 26.4835 16.5658 26.5397 16.6321C26.5959 16.6983 26.6382 16.7751 26.6642 16.858C26.6901 16.9409 26.6991 17.0282 26.6906 17.1147C26.6822 17.2011 26.6564 17.285 26.6149 17.3613C26.4343 17.6952 26.0128 17.8027 25.6715 17.6207C25.575 17.5717 25.4638 17.5602 25.3593 17.5882C23.9341 18.0676 22.5126 18.5586 21.0888 19.0435C20.9591 19.0898 20.8392 19.1149 20.8656 19.2992C20.8906 19.4757 20.8109 19.654 21.0884 19.7471C23.5381 20.5692 25.9767 21.4247 28.4296 22.2371C28.9561 22.4132 29.5052 22.5119 30.06 22.5303C32.1559 22.5845 33.9507 21.8175 35.462 20.3863C36.4041 19.4942 37.0303 18.4178 37.2619 17.1204C37.4212 16.2279 37.1868 15.5299 36.3689 15.0857C35.9905 14.8805 35.5986 14.6962 35.204 14.5239C34.8423 14.366 34.8122 14.2668 34.9979 13.9125C35.255 13.4225 35.5032 12.9264 35.7214 12.4178C35.914 11.9686 35.8321 11.5281 35.5745 11.1149C35.0544 10.2812 34.2879 9.75229 33.4037 9.38176C32.2823 8.91164 31.1077 8.77963 29.9072 8.92924C27.9202 9.17518 26.2615 10.0126 25.0652 11.6721C23.8248 13.3942 22.5827 15.1144 21.3389 16.8328C21.0277 17.2636 20.7188 17.6957 20.4112 18.1237ZM20.3649 20.6901C20.3913 20.7323 20.4112 20.7661 20.4316 20.7966C21.3406 22.0528 22.2516 23.3078 23.1643 24.5618C23.2106 24.6248 23.3097 24.6516 23.388 24.6868C23.5381 24.7549 23.7183 24.7855 23.8373 24.8883C24.0656 25.0847 24.0814 25.4561 23.9123 25.7164C23.7549 25.9596 23.4232 26.0587 23.131 25.948C22.8387 25.8373 22.6896 25.5502 22.7261 25.219C22.7391 25.1018 22.7363 24.9499 22.6729 24.8628C21.785 23.6387 20.8804 22.4275 19.9934 21.2038C19.8109 20.9513 19.6581 21.1704 19.4918 21.182C19.3255 21.1936 19.3385 21.3177 19.3385 21.4377C19.3385 23.9221 19.3274 26.407 19.3496 28.8915C19.3538 29.4545 19.425 30.015 19.5618 30.5612C20.0712 32.5737 21.2755 34.0966 23.0156 35.1888C24.1115 35.8761 25.3176 36.2573 26.6256 36.1211C27.7835 36.0007 28.2004 35.6246 28.4737 34.6163C28.5913 34.1818 28.6186 33.721 28.6645 33.2694C28.7001 32.9188 28.8164 32.8206 29.1615 32.9044C29.3845 32.9664 29.6105 33.0171 29.8386 33.0563C30.1513 33.1005 30.4661 33.1284 30.7816 33.1397C31.6681 33.1684 32.1637 32.6409 32.5009 31.9016C33.034 30.7335 33.1031 29.5191 32.8349 28.2796C32.468 26.5881 31.6218 25.1764 30.3148 24.0407C29.5223 23.351 28.5769 22.9689 27.5996 22.6387C25.4416 21.9109 23.2877 21.1769 21.1379 20.4367C20.6734 20.2779 20.6757 20.2719 20.3649 20.6901ZM18.6692 25.4747H18.6942C18.6942 24.1315 18.685 22.7883 18.7016 21.4451C18.7054 21.1422 18.4761 21.194 18.3311 21.107C18.175 21.0143 18.1074 21.1236 18.0342 21.2241C17.1894 22.3744 16.3443 23.5246 15.4988 24.6748C15.3599 24.8633 15.2603 25.0319 15.3061 25.2977C15.371 25.6715 15.0833 25.9684 14.704 26.0004C14.3585 26.0291 14.0403 25.7526 14.0092 25.3982C13.9768 25.0203 14.2279 24.7118 14.6114 24.6933C14.7628 24.6859 14.8453 24.6261 14.9282 24.5108C15.7962 23.3015 16.6604 22.0889 17.5479 20.893C17.7382 20.6364 17.5173 20.5433 17.44 20.3835C17.3594 20.2172 17.244 20.3191 17.1449 20.3529C14.8684 21.132 12.5892 21.9032 10.3192 22.7017C9.71148 22.9156 9.08156 23.1375 8.55169 23.4891C6.50679 24.8517 5.34376 26.7827 5.09411 29.2324C4.98666 30.2903 5.16961 31.3055 5.71847 32.243C6.03157 32.778 6.46649 33.1281 7.09038 33.1175C7.63493 33.1041 8.1773 33.0438 8.71149 32.9373C9.27795 32.8289 9.34511 32.8479 9.36965 33.4278C9.38548 33.9683 9.49389 34.502 9.69017 35.0058C9.89767 35.5264 10.265 35.8465 10.8018 35.9952C11.5994 36.217 12.3928 36.1582 13.1802 35.9595C14.8258 35.5426 16.119 34.5959 17.1449 33.2731C18.0657 32.0832 18.6271 30.7423 18.6664 29.2254C18.6947 27.9758 18.6692 26.7252 18.6692 25.4747ZM17.7609 19.384C17.7586 20.0741 18.3167 20.6475 18.9995 20.6517C19.6822 20.6558 20.2635 20.0769 20.2672 19.4057C20.2704 18.6934 19.7114 18.1088 19.0282 18.1116C18.345 18.1144 17.7633 18.6924 17.7609 19.3826V19.384Z" fill="#3D332F"/>
</svg>
